<?xml version="1.0" standalone="no"?>
<!DOCTYPE svg PUBLIC "-//W3C//DTD SVG 1.1//EN" "http://www.w3.org/Graphics/SVG/1.1/DTD/svg11.dtd" >
<svg xmlns="http://www.w3.org/2000/svg" xmlns:xlink="http://www.w3.org/1999/xlink" version="1.1">
<metadata>
Created by FontForge 20170731 at Tue Jul  9 21:01:47 2019
 By Aleksey,,,
Copyright (c) 2019 by Fontastica. All rights reserved.
</metadata>
<defs>
<font id="Nord-Italic" horiz-adv-x="665" >
  <font-face 
    font-family="Nord"
    font-weight="400"
    font-style="italic"
    font-stretch="normal"
    units-per-em="1000"
    panose-1="0 0 5 0 0 0 0 0 0 0"
    ascent="800"
    descent="-200"
    x-height="643"
    cap-height="643"
    bbox="16 -147 1195 868"
    underline-thickness="50"
    underline-position="-200"
    unicode-range="U+0020-2212"
  />
<missing-glyph horiz-adv-x="411" 
 />
    <glyph glyph-name=".notdef" horiz-adv-x="411" 
 />
    <glyph glyph-name=".null" horiz-adv-x="0" 
 />
    <glyph glyph-name="nonmarkingreturn" horiz-adv-x="333" 
 />
    <glyph glyph-name="space" unicode=" " horiz-adv-x="309" 
 />
    <glyph glyph-name="exclam" unicode="!" horiz-adv-x="302" 
d="M202 643l-19 -121q-29 -176 -36 -349v-8h60l2 8q49 179 77 349l19 121h-103zM173 136q-34 0 -55.5 -21.5t-26.5 -52.5t9.5 -53t48.5 -22t55.5 21.5t27.5 53.5q5 31 -10 52.5t-49 21.5z" />
    <glyph glyph-name="quotedbl" unicode="&#x22;" horiz-adv-x="452" 
d="M183 643l-14 -88q-14 -86 -5 -147l1 -7h63l3 7q27 62 41 147l14 88h-103zM371 643l-14 -88q-13 -82 -4 -147l2 -7h61l3 7q29 66 42 147l14 88h-104z" />
    <glyph glyph-name="numbersign" unicode="#" horiz-adv-x="791" 
d="M145 0h94l49 147h171l-51 -147h93l50 147h120l13 82h-104l64 185h121l13 82h-105l50 147h-94l-49 -147h-170l51 147h-94l-49 -147h-120l-13 -82h104l-65 -185h-120l-13 -82h104zM317 229l65 185h169l-65 -185h-169z" />
    <glyph glyph-name="dollar" unicode="$" horiz-adv-x="540" 
d="M206 -126h79l24 154q214 21 239 176q8 47 -4 79.5t-40.5 49.5t-62 24.5t-78.5 9.5l26 164q92 -15 98 -72v-7h92l-1 11q-4 126 -176 151l24 149h-79l-23 -147q-215 -20 -240 -173q-8 -47 4.5 -78.5t43 -47.5t62.5 -22t77 -8l-28 -178q-111 16 -119 74l-1 7h-90v-11
q4 -130 197 -152zM310 531l-26 -163q-37 4 -59 9.5t-38 23.5t-11 47q11 66 134 83zM322 110l28 174q55 -5 85.5 -22.5t23.5 -59.5q-12 -74 -137 -92z" />
    <glyph glyph-name="percent" unicode="%" horiz-adv-x="941" 
d="M354 724q-83 0 -139 -56.5t-69 -135.5q-12 -78 26.5 -131.5t121.5 -53.5q84 0 139 53.5t67 131.5q13 79 -25 135.5t-121 56.5zM340 635q41 0 58 -28.5t11 -71.5q-7 -42 -33.5 -70t-67.5 -28t-59 27.5t-11 69.5q6 43 33.5 72t68.5 29zM211 96l53 -66l568 518l-53 65z
M751 296q-84 0 -140.5 -56.5t-68.5 -134.5q-13 -79 26 -132.5t123 -53.5q83 0 137.5 53.5t67.5 132.5q12 78 -25.5 134.5t-119.5 56.5zM736 207q41 0 58.5 -28.5t11.5 -70.5t-33.5 -70.5t-68.5 -28.5t-58.5 28.5t-11.5 70.5t33.5 70.5t68.5 28.5z" />
    <glyph glyph-name="ampersand" unicode="&#x26;" horiz-adv-x="648" 
d="M272 371q-78 -39 -125 -84.5t-58 -114.5q-14 -90 41 -138t151 -48q56 0 98 18.5t90 57.5q38 -48 79 -74l7 -5l72 79l-7 5q-31 24 -76 76q39 46 71 120l4 9l-84 22l-4 -9q-16 -34 -44 -74l-80 148q30 18 49 31t42 33.5t36.5 44.5t17.5 52q11 64 -32.5 100t-111.5 36
q-66 0 -119.5 -32.5t-63.5 -94.5q-11 -64 47 -158zM401 575q32 0 48 -15t12 -44q-5 -30 -38 -55q-10 -8 -32 -22l-27 -16q-2 4 -6.5 10.5t-6.5 9.5q-10 15 -17 29q-16 33 -12 61q7 42 79 42zM310 308l107 -180q-81 -60 -134 -60q-49 0 -74 30t-17 77q12 78 118 133z" />
    <glyph glyph-name="quotesingle" unicode="'" horiz-adv-x="264" 
d="M183 643l-14 -88q-14 -86 -5 -147l1 -7h63l3 7q27 62 41 147l14 88h-103z" />
    <glyph glyph-name="parenleft" unicode="(" horiz-adv-x="307" 
d="M319 782q-82 -96 -134 -217t-72 -244q-21 -113 -6 -238.5t66 -221.5l5 -8l83 53l-4 7q-78 177 -41 408q37 232 171 409l6 7l-67 53z" />
    <glyph glyph-name="parenright" unicode=")" horiz-adv-x="307" 
d="M16 -94l66 -53l7 8q82 96 134.5 216.5t72.5 243.5q21 114 6 239.5t-67 221.5l-5 8l-82 -53l3 -7q77 -180 41 -409q-37 -229 -171 -408z" />
    <glyph glyph-name="asterisk" unicode="*" horiz-adv-x="463" 
d="M421 332l43 60l-7 5q-35 24 -54 32.5t-57 13.5l4 24q39 6 61 15t65 34l8 5l-22 60l-11 -5q-43 -23 -62.5 -38t-45.5 -46l-18 10q2 5 7.5 15.5t7.5 13.5q14 31 15 39l12 73h-67l-12 -73q-1 -16 4 -39q1 -6 4 -16t4 -14l-24 -7q-17 31 -31.5 45t-50.5 37l-8 5l-41 -60l6 -5
q35 -26 53.5 -34.5t55.5 -14.5q-2 -13 -3 -24q-38 -4 -61 -14q-8 -2 -29 -13q-4 -2 -15.5 -8.5t-19.5 -10.5l-8 -5l23 -60l9 5q45 23 63 36.5t47 47.5l18 -14l-16 -27q-14 -25 -16 -37l-12 -75h67l12 75q3 12 -3 35l-6 28l19 17q19 -34 33 -48.5t50 -37.5z" />
    <glyph glyph-name="plus" unicode="+" 
d="M324 274l-32 -207h104l32 207h188l16 96h-188l32 207h-104l-32 -207h-188l-16 -96h188z" />
    <glyph glyph-name="comma" unicode="," horiz-adv-x="302" 
d="M78 -114l25 -31l9 7q101 79 118 189q13 85 -55 85q-36 0 -57.5 -22t-27.5 -55q-5 -31 8 -47.5t41 -25.5q-27 -58 -56 -94z" />
    <glyph glyph-name="hyphen" unicode="-" horiz-adv-x="602" 
d="M152 370l-16 -96h416l16 96h-416z" />
    <glyph glyph-name="period" unicode="." horiz-adv-x="302" 
d="M173 136q-34 0 -55.5 -21.5t-26.5 -52.5t9.5 -53t48.5 -22t55.5 21.5t27.5 53.5q5 31 -10 52.5t-49 21.5z" />
    <glyph glyph-name="slash" unicode="/" horiz-adv-x="546" 
d="M42 -47l74 -43l490 780l-74 43z" />
    <glyph glyph-name="zero" unicode="0" horiz-adv-x="728" 
d="M469 656q-79 0 -140.5 -27.5t-100.5 -76.5t-62 -106.5t-34 -125.5q-13 -64 -6 -124t29 -106.5t74.5 -74.5t130.5 -28q79 0 140.5 27.5t101 76t63 106t34.5 126.5q7 52 7.5 100.5t-14.5 91t-41 74t-72.5 49.5t-109.5 18zM452 555q48 0 80.5 -20.5t45 -54t16 -75.5
t-5.5 -84q-7 -45 -21.5 -84t-39 -73t-63 -54t-86.5 -20q-64 0 -99.5 35t-40 86t2.5 110q16 99 67 166.5t144 67.5z" />
    <glyph glyph-name="one" unicode="1" horiz-adv-x="289" 
d="M195 643l-102 -643h104l102 643h-104z" />
    <glyph glyph-name="two" unicode="2" 
d="M87 81l-13 -81h505l15 95h-381l2 13q8 52 75 93q35 23 101 50q99 44 107 48q126 66 143 173q15 91 -49.5 137.5t-162.5 46.5q-100 0 -171 -46t-96 -138l-4 -11h112l2 8q16 43 57 64.5t92 21.5t83.5 -21.5t25.5 -63.5q-7 -46 -53 -75q-21 -14 -51 -27q-17 -8 -53 -22
q-261 -109 -286 -265z" />
    <glyph glyph-name="three" unicode="3" 
d="M218 169h-110l-1 -10q-3 -92 59 -132t164 -40q70 0 126.5 17t101 61.5t55.5 113.5q9 56 -9 86.5t-65 58.5q48 30 70.5 59t30.5 79q16 100 -42.5 147t-166.5 47q-219 0 -267 -171l-3 -10h112l3 7q29 73 138 73q58 0 91 -23.5t25 -73.5q-5 -29 -20 -48t-41.5 -27t-50 -10.5
t-59.5 -2.5h-50l-16 -96h10h69q43 0 71 -8q71 -17 61 -82q-8 -50 -52 -72t-106 -22q-121 0 -127 72z" />
    <glyph glyph-name="four" unicode="4" horiz-adv-x="667" 
d="M388 0h104l21 133h113l15 96h-113l66 414h-98l-424 -420l-14 -90h351zM196 229l271 269l-43 -269h-228z" />
    <glyph glyph-name="five" unicode="5" 
d="M218 169h-110l-1 -10q-3 -63 28.5 -103t80 -54.5t113.5 -14.5q113 0 191.5 49.5t94.5 153.5q8 51 -3.5 88t-35.5 58.5t-63 34.5t-76.5 17t-85.5 4q-31 0 -91 -2l25 158h344l15 95h-449l-56 -350h240q63 0 98.5 -24t27.5 -77t-52.5 -77.5t-108.5 -24.5q-50 0 -86.5 17
t-38.5 55z" />
    <glyph glyph-name="six" unicode="6" horiz-adv-x="666" 
d="M442 656q-62 0 -113.5 -20t-87.5 -52t-63 -77t-42.5 -91.5t-23.5 -98.5q-13 -65 -5.5 -124.5t30.5 -105t76 -73t130 -27.5q70 0 130 20.5t106 68.5t57 117q15 97 -47 150.5t-165 53.5q-102 0 -196 -47q8 33 23 75q27 67 65 98.5t105 31.5q48 0 84 -18t39 -55l1 -7h109
l1 10q4 85 -57.5 128t-155.5 43zM391 301q63 0 102.5 -26t31.5 -78q-8 -54 -57 -80.5t-113 -26.5q-74 0 -104.5 38t-34.5 113q89 60 175 60z" />
    <glyph glyph-name="seven" unicode="7" horiz-adv-x="623" 
d="M519 548l-331 -548h114l332 548l2 6v4l14 85h-480l-15 -95h364z" />
    <glyph glyph-name="eight" unicode="8" 
d="M237 324q-57 -29 -88.5 -63.5t-40.5 -91.5q-8 -50 8 -87t50 -57t74.5 -29t89.5 -9q48 0 92 9t85 28.5t69 56.5t36 88q9 57 -12 91.5t-71 63.5q51 32 77.5 64.5t34.5 85.5q8 49 -5.5 85t-43.5 56.5t-68.5 30.5t-86.5 10q-102 0 -174.5 -44t-87.5 -138q-8 -52 7 -85t55 -65
zM421 555q55 0 85.5 -23t22.5 -70q-14 -92 -137 -92q-55 0 -85.5 22.5t-23.5 69.5q8 47 45.5 70t92.5 23zM377 274q59 0 97 -22.5t30 -70.5t-52.5 -69.5t-104.5 -21.5t-98 21.5t-30 69.5t53 70.5t105 22.5z" />
    <glyph glyph-name="nine" unicode="9" horiz-adv-x="667" 
d="M201 169h-112v-11q1 -85 72.5 -128t167.5 -43q76 0 136 29.5t98.5 80t61.5 107.5t33 122q7 52 7 100.5t-15 90.5t-41.5 73t-73.5 48.5t-110 17.5q-70 0 -129.5 -20.5t-105 -68t-56.5 -116.5q-15 -98 47 -151t167 -53q103 0 192 45q-8 -36 -24 -77q-26 -66 -63.5 -95.5
t-105.5 -29.5q-51 0 -95.5 18.5t-49.5 54.5zM414 555q73 0 104.5 -39t34.5 -113q-94 -60 -178 -60q-62 0 -100 25.5t-30 77.5q8 54 56.5 81.5t112.5 27.5z" />
    <glyph glyph-name="colon" unicode=":" horiz-adv-x="302" 
d="M235 530q-34 0 -55.5 -22t-26.5 -53t10 -52t49 -21t55.5 20.5t26.5 52.5t-10 53.5t-49 21.5zM173 136q-34 0 -55.5 -21.5t-26.5 -52.5t9.5 -53t48.5 -22t55.5 21.5t27.5 53.5q5 31 -10 52.5t-49 21.5z" />
    <glyph glyph-name="semicolon" unicode=";" horiz-adv-x="302" 
d="M235 530q-34 0 -55.5 -22t-26.5 -53t10 -52t49 -21t55.5 20.5t26.5 52.5t-10 53.5t-49 21.5zM78 -114l25 -31l9 7q101 79 118 189q13 85 -55 85q-36 0 -57.5 -22t-27.5 -55q-5 -31 8 -47.5t41 -25.5q-27 -58 -56 -94z" />
    <glyph glyph-name="equal" unicode="=" 
d="M173 503l-15 -95h480l15 95h-480zM130 236l-15 -95h480l15 95h-480z" />
    <glyph glyph-name="question" unicode="?" horiz-adv-x="704" 
d="M360 376l-3 -18q-10 -61 1 -118l1 -6h62l22 47q51 3 90 10.5t80.5 25.5t67.5 53.5t34 86.5q9 54 -9 94t-55 62t-81.5 32.5t-96.5 10.5q-48 0 -94.5 -8t-94.5 -25.5t-85.5 -51.5t-54.5 -81l-8 -22h104l3 7q20 46 80 66t127 20q68 0 119 -23.5t43 -74.5q-8 -56 -87 -75
q-32 -8 -71 -10q-24 -2 -65 -2h-29zM375 136q-34 0 -56 -21.5t-27 -52.5q-5 -32 9.5 -53.5t49.5 -21.5t56 21.5t26 53.5t-9.5 53t-48.5 21z" />
    <glyph glyph-name="at" unicode="@" horiz-adv-x="1004" 
d="M630 790q-209 0 -347 -131.5t-169 -331.5q-22 -136 18.5 -243t140.5 -169t246 -62q158 0 260 61l8 5l-31 74l-10 -4q-83 -40 -202 -40q-175 0 -260.5 105t-58.5 272q24 154 127.5 261t260.5 107q140 0 218 -82.5t57 -213.5q-23 -144 -153 -190l46 291h-105l-3 -12
q-34 27 -94 27q-86 0 -150.5 -57t-76.5 -138q-13 -82 34 -138t133 -56q49 0 103 24q16 -29 62 -29q132 0 214.5 81t102.5 206q19 116 -25 204t-134.5 133.5t-211.5 45.5zM573 419q39 0 61 -30.5t17 -68.5q-6 -39 -38.5 -70t-71.5 -31q-40 0 -61.5 30.5t-15.5 70.5
q6 39 38 69t71 30z" />
    <glyph glyph-name="A" unicode="A" horiz-adv-x="746" 
d="M37 0h110l98 167h304l48 -167h112l-187 648h-102zM296 261l157 268l77 -268h-234z" />
    <glyph glyph-name="B" unicode="B" horiz-adv-x="765" 
d="M93 0h427q84 0 139 52t68 131q7 42 -8 83.5t-50 62.5q63 44 77 132q13 78 -26 130t-121 52h-404zM256 370l28 178h300q35 0 49.5 -26.5t7.5 -64.5q-6 -39 -27 -63t-58 -24h-300zM212 95l28 179h323q37 0 51.5 -26t8.5 -66q-6 -39 -28 -63t-60 -24h-323z" />
    <glyph glyph-name="C" unicode="C" horiz-adv-x="748" 
d="M480 656q-144 0 -245 -99t-122 -236q-14 -88 10 -163t89.5 -123t161.5 -48q119 0 211.5 70.5t136.5 181.5l4 11h-113l-4 -7q-28 -67 -88 -110t-131 -43q-94 0 -137.5 69.5t-28.5 162.5q14 93 80.5 163t159.5 70q71 0 116.5 -43.5t54.5 -110.5v-7h113v11q-8 111 -78.5 181
t-189.5 70z" />
    <glyph glyph-name="D" unicode="D" horiz-adv-x="772" 
d="M195 643l-102 -643h303q141 0 242.5 94.5t122.5 227.5q21 134 -50.5 227.5t-212.5 93.5h-303zM411 95h-199l72 453h199q93 0 137.5 -67t30.5 -160q-15 -92 -81 -159t-159 -67z" />
    <glyph glyph-name="E" unicode="E" horiz-adv-x="759" 
d="M195 643l-102 -643h592l15 95h-488l28 179h363l16 96h-363l28 178h488l15 95h-592z" />
    <glyph glyph-name="F" unicode="F" horiz-adv-x="735" 
d="M195 643l-102 -643h104l43 274h351l16 96h-351l28 178h476l15 95h-580z" />
    <glyph glyph-name="G" unicode="G" horiz-adv-x="754" 
d="M479 656q-72 0 -137 -28t-111 -75.5t-77 -107t-41 -124.5q-14 -88 10 -163t90 -123t162 -48q144 0 245.5 99t122.5 235q1 6 2 17t2 16v9h-303l-15 -95h194q-27 -77 -90 -127.5t-143 -50.5q-93 0 -136.5 69.5t-29.5 162.5t80 163t159 70q48 0 88 -22t62 -60l2 -4l124 1
l-4 14q-31 81 -96.5 126.5t-159.5 45.5z" />
    <glyph glyph-name="H" unicode="H" horiz-adv-x="790" 
d="M195 643l-102 -643h104l43 274h397l-43 -274h104l102 643h-104l-43 -273h-397l43 273h-104z" />
    <glyph glyph-name="I" unicode="I" horiz-adv-x="289" 
d="M195 643l-102 -643h104l102 643h-104z" />
    <glyph glyph-name="J" unicode="J" horiz-adv-x="641" 
d="M208 229h-104v-10q-8 -98 46 -165t157 -67q109 0 186 76t93 179l64 401h-103l-64 -401q-9 -62 -54 -107t-107 -45q-55 0 -85.5 37.5t-28.5 92.5v9z" />
    <glyph glyph-name="K" unicode="K" horiz-adv-x="741" 
d="M195 643l-102 -643h104l27 168l168 140l182 -308h125l-224 377l319 266h-144l-405 -338l54 338h-104z" />
    <glyph glyph-name="L" unicode="L" horiz-adv-x="623" 
d="M195 643l-102 -643h480l15 95h-376l87 548h-104z" />
    <glyph glyph-name="M" unicode="M" horiz-adv-x="790" 
d="M195 643l-102 -643h104l75 476l128 -218h71l199 219l-76 -477h104l102 643h-97l-248 -274l-164 274h-96z" />
    <glyph glyph-name="N" unicode="N" horiz-adv-x="790" 
d="M195 643l-102 -643h104l76 479l327 -479h98l102 643h-104l-76 -478l-327 478h-98z" />
    <glyph glyph-name="O" unicode="O" horiz-adv-x="754" 
d="M480 656q-144 0 -245 -99t-122 -236q-14 -88 10 -163t89.5 -123t161.5 -48q144 0 245.5 98.5t123.5 235.5q21 138 -49 236.5t-214 98.5zM464 555q95 0 139.5 -69.5t29.5 -164.5q-15 -94 -82 -162.5t-161 -68.5q-93 0 -136.5 69.5t-29.5 162.5q15 94 81 163.5t159 69.5z
" />
    <glyph glyph-name="P" unicode="P" horiz-adv-x="765" 
d="M93 0h104l43 274h337q84 0 138.5 52.5t67.5 131.5q12 79 -26 132t-121 53h-441zM256 370l28 178h337q35 0 49.5 -26.5t7.5 -64.5q-6 -39 -27 -63t-58 -24h-337z" />
    <glyph glyph-name="Q" unicode="Q" horiz-adv-x="754" 
d="M480 656q-144 0 -245 -99t-122 -236q-22 -137 49 -235.5t215 -98.5q100 0 192 60l48 -62l90 65l-55 72q74 88 90 196q22 138 -47.5 238t-214.5 100zM420 243l91 -118q-58 -35 -116 -35q-96 0 -141 68.5t-30 163.5q15 94 81 163.5t159 69.5q95 0 139.5 -69.5t29.5 -164.5
q-9 -54 -45 -116l-81 107z" />
    <glyph glyph-name="R" unicode="R" horiz-adv-x="777" 
d="M93 0h104l43 274h230l115 -274h116l-115 275h13q77 6 124.5 57.5t59.5 125.5q12 79 -26 132t-121 53h-441zM256 370l28 178h337q35 0 49.5 -26.5t7.5 -64.5q-6 -39 -27 -63t-58 -24h-337z" />
    <glyph glyph-name="S" unicode="S" horiz-adv-x="703" 
d="M194 176h-104v-11q-1 -50 24.5 -86.5t68 -55.5t88 -27.5t94.5 -8.5q115 0 202.5 49.5t104.5 155.5q8 48 -5.5 83t-38 54t-65 30t-75.5 14t-80 3q-70 0 -109 16q-54 22 -47 71q4 27 22.5 47t46 30.5t55.5 15.5t58 5q38 0 72.5 -7t63 -27.5t29.5 -51.5l1 -7h104v11
q1 49 -22.5 85t-63.5 55t-84.5 28t-92.5 9q-70 0 -129.5 -18t-106 -64t-57.5 -115q-7 -46 5 -80t35 -52.5t61 -29t71.5 -13.5t77.5 -3q74 0 118 -17q60 -23 52 -77q-9 -55 -68 -80t-130 -25q-39 0 -75.5 7t-67 28t-32.5 52z" />
    <glyph glyph-name="T" unicode="T" horiz-adv-x="703" 
d="M387 548l-87 -548h104l87 548h250l15 95h-605l-15 -95h251z" />
    <glyph glyph-name="U" unicode="U" horiz-adv-x="765" 
d="M195 643l-53 -335q-10 -60 0.5 -117t38.5 -102.5t80 -73.5t120 -28q134 0 227.5 96.5t113.5 224.5l53 335h-104l-53 -335q-14 -87 -74.5 -152.5t-146.5 -65.5t-125.5 65t-25.5 153l53 335h-104z" />
    <glyph glyph-name="V" unicode="V" horiz-adv-x="746" 
d="M140 648l177 -648h102l393 648h-112l-309 -511l-141 511h-110z" />
    <glyph glyph-name="W" unicode="W" horiz-adv-x="813" 
d="M151 643l-28 -643h115l230 389l110 -389h114l174 643h-101l-125 -465l-96 332h-111l-198 -332l17 465h-101z" />
    <glyph glyph-name="X" unicode="X" horiz-adv-x="704" 
d="M338 334l-313 -334h124l238 256l157 -256h135l-211 336l294 307h-127l-215 -229l-143 229h-130z" />
    <glyph glyph-name="Y" unicode="Y" horiz-adv-x="660" 
d="M310 205q-2 -19 -4 -26l-28 -179h104l35 222q-1 1 0 3q6 15 44 63q9 12 28 34t26 31l222 290h-120l-233 -307l-139 307h-118l130 -290q4 -10 34 -65q20 -39 23 -63q-1 -1 -1 -5z" />
    <glyph glyph-name="Z" unicode="Z" horiz-adv-x="740" 
d="M88 89l-14 -89h592l15 95h-448l509 459l14 89h-568l-15 -95h423z" />
    <glyph glyph-name="bracketleft" unicode="[" horiz-adv-x="348" 
d="M216 776l-144 -909h198l15 95h-94l114 719h94l15 95h-198z" />
    <glyph glyph-name="backslash" unicode="\" horiz-adv-x="546" 
d="M158 690l244 -780l88 43l-244 780z" />
    <glyph glyph-name="bracketright" unicode="]" horiz-adv-x="348" 
d="M50 -38l-13 -95h196l144 909h-198l-15 -95h94l-115 -719h-93z" />
    <glyph glyph-name="underscore" unicode="_" horiz-adv-x="602" 
d="M88 -32l-15 -96h416l15 96h-416z" />
    <glyph glyph-name="a" unicode="a" horiz-adv-x="746" 
d="M37 0h110l98 167h304l48 -167h112l-187 648h-102zM296 261l156 270l78 -270h-234z" />
    <glyph glyph-name="b" unicode="b" horiz-adv-x="765" 
d="M93 0h427q84 0 139 52t68 131q7 42 -8 83.5t-50 62.5q63 44 77 132q13 78 -26 130t-121 52h-404zM256 370l28 178h300q35 0 49.5 -26.5t7.5 -64.5q-6 -39 -27 -63t-58 -24h-300zM212 95l28 179h323q37 0 51.5 -26t8.5 -66q-6 -39 -28 -63t-60 -24h-323z" />
    <glyph glyph-name="c" unicode="c" horiz-adv-x="748" 
d="M480 656q-144 0 -245 -99t-122 -236q-14 -88 10 -163t89.5 -123t161.5 -48q119 0 211.5 70.5t136.5 181.5l4 11h-113l-4 -7q-28 -67 -88 -110t-131 -43q-94 0 -137.5 69.5t-28.5 162.5q14 93 80.5 163t159.5 70q71 0 116.5 -43.5t54.5 -110.5v-7h113v11q-8 111 -78.5 181
t-189.5 70z" />
    <glyph glyph-name="d" unicode="d" horiz-adv-x="772" 
d="M195 643l-102 -643h303q141 0 242.5 94.5t122.5 227.5q21 134 -50.5 227.5t-212.5 93.5h-303zM411 95h-199l72 453h199q93 0 137.5 -67t30.5 -160q-15 -92 -81 -159t-159 -67z" />
    <glyph glyph-name="e" unicode="e" horiz-adv-x="759" 
d="M195 643l-102 -643h592l15 95h-488l28 179h363l16 96h-363l28 178h488l15 95h-592z" />
    <glyph glyph-name="f" unicode="f" horiz-adv-x="735" 
d="M195 643l-102 -643h104l43 274h351l16 96h-351l28 178h476l15 95h-580z" />
    <glyph glyph-name="g" unicode="g" horiz-adv-x="754" 
d="M479 656q-72 0 -137 -28t-111 -75.5t-77 -107t-41 -124.5q-14 -88 10 -163t90 -123t162 -48q144 0 245.5 99t122.5 235q1 6 2 17t2 16v9h-303l-15 -95h194q-27 -77 -90 -127.5t-143 -50.5q-93 0 -136.5 69.5t-29.5 162.5t80 163t159 70q48 0 88 -22t62 -60l2 -4l124 1
l-4 14q-31 81 -96.5 126.5t-159.5 45.5z" />
    <glyph glyph-name="h" unicode="h" horiz-adv-x="790" 
d="M195 643l-102 -643h104l43 274h397l-43 -274h104l102 643h-104l-43 -273h-397l43 273h-104z" />
    <glyph glyph-name="i" unicode="i" horiz-adv-x="289" 
d="M195 643l-102 -643h104l102 643h-104z" />
    <glyph glyph-name="j" unicode="j" horiz-adv-x="653" 
d="M220 229h-103v-10q-8 -98 45.5 -165t156.5 -67q109 0 186.5 76t93.5 179l64 401h-104l-64 -401q-10 -61 -54.5 -106.5t-105.5 -45.5q-56 0 -86.5 37.5t-28.5 92.5v9z" />
    <glyph glyph-name="k" unicode="k" horiz-adv-x="741" 
d="M195 643l-102 -643h104l27 168l168 140l182 -308h125l-224 377l319 266h-144l-405 -338l54 338h-104z" />
    <glyph glyph-name="l" unicode="l" horiz-adv-x="623" 
d="M195 643l-102 -643h480l15 95h-376l87 548h-104z" />
    <glyph glyph-name="m" unicode="m" horiz-adv-x="790" 
d="M195 643l-102 -643h104l75 476l128 -218h71l199 219l-76 -477h104l102 643h-97l-248 -274l-164 274h-96z" />
    <glyph glyph-name="n" unicode="n" horiz-adv-x="790" 
d="M195 643l-102 -643h104l76 479l327 -479h98l102 643h-104l-76 -478l-327 478h-98z" />
    <glyph glyph-name="o" unicode="o" horiz-adv-x="754" 
d="M480 656q-144 0 -245 -99t-122 -236q-14 -88 10 -163t89.5 -123t161.5 -48q144 0 245.5 98.5t123.5 235.5q21 138 -49 236.5t-214 98.5zM464 555q95 0 139.5 -69.5t29.5 -164.5q-15 -94 -82 -162.5t-161 -68.5q-93 0 -136.5 69.5t-29.5 162.5q15 94 81 163.5t159 69.5z
" />
    <glyph glyph-name="p" unicode="p" horiz-adv-x="772" 
d="M93 0h104l43 274h337q84 0 138.5 52.5t67.5 131.5q12 79 -26 132t-121 53h-441zM256 370l28 178h337q35 0 49.5 -26.5t7.5 -64.5q-6 -39 -27 -63t-58 -24h-337z" />
    <glyph glyph-name="q" unicode="q" horiz-adv-x="754" 
d="M480 656q-144 0 -245 -99t-122 -236q-22 -137 49 -235.5t215 -98.5q100 0 192 60l48 -62l90 65l-55 72q74 88 90 196q22 138 -47.5 238t-214.5 100zM420 243l91 -118q-58 -35 -116 -35q-96 0 -141 68.5t-30 163.5q15 94 81 163.5t159 69.5q95 0 139.5 -69.5t29.5 -164.5
q-9 -54 -45 -116l-81 107z" />
    <glyph glyph-name="r" unicode="r" horiz-adv-x="777" 
d="M93 0h104l43 274h230l115 -274h116l-115 275h13q77 6 124.5 57.5t59.5 125.5q12 79 -26 132t-121 53h-441zM256 370l28 178h337q35 0 49.5 -26.5t7.5 -64.5q-6 -39 -27 -63t-58 -24h-337z" />
    <glyph glyph-name="s" unicode="s" horiz-adv-x="703" 
d="M194 176h-104v-11q-1 -50 24.5 -86.5t68 -55.5t88 -27.5t94.5 -8.5q115 0 202.5 49.5t104.5 155.5q8 48 -5.5 83t-38 54t-65 30t-75.5 14t-80 3q-70 0 -109 16q-54 22 -47 71q4 27 22.5 47t46 30.5t55.5 15.5t58 5q38 0 72.5 -7t63 -27.5t29.5 -51.5l1 -7h104v11
q1 49 -22.5 85t-63.5 55t-84.5 28t-92.5 9q-70 0 -129.5 -18t-106 -64t-57.5 -115q-7 -46 5 -80t35 -52.5t61 -29t71.5 -13.5t77.5 -3q74 0 118 -17q60 -23 52 -77q-9 -55 -68 -80t-130 -25q-39 0 -75.5 7t-67 28t-32.5 52z" />
    <glyph glyph-name="t" unicode="t" horiz-adv-x="703" 
d="M387 548l-87 -548h104l87 548h250l15 95h-605l-15 -95h251z" />
    <glyph glyph-name="u" unicode="u" horiz-adv-x="765" 
d="M195 643l-53 -335q-10 -60 0.5 -117t38.5 -102.5t80 -73.5t120 -28q134 0 227.5 96.5t113.5 224.5l53 335h-104l-53 -335q-14 -87 -74.5 -152.5t-146.5 -65.5t-125.5 65t-25.5 153l53 335h-104z" />
    <glyph glyph-name="v" unicode="v" horiz-adv-x="746" 
d="M140 648l177 -648h102l393 648h-112l-309 -511l-141 511h-110z" />
    <glyph glyph-name="w" unicode="w" horiz-adv-x="813" 
d="M151 643l-28 -643h115l230 389l110 -389h114l174 643h-101l-125 -465l-96 332h-111l-198 -332l17 465h-101z" />
    <glyph glyph-name="x" unicode="x" horiz-adv-x="740" 
d="M358 334l-321 -334h128l244 256l166 -256h128l-217 334l300 309h-129l-221 -233l-151 233h-126z" />
    <glyph glyph-name="y" unicode="y" horiz-adv-x="684" 
d="M310 205q-2 -19 -4 -26l-28 -179h104l35 222q-1 1 0 3q6 15 44 63q9 12 28 34t26 31l222 290h-120l-233 -307l-139 307h-118l130 -290q4 -10 34 -65q20 -39 23 -63q-1 -1 -1 -5z" />
    <glyph glyph-name="z" unicode="z" horiz-adv-x="740" 
d="M88 89l-14 -89h592l15 95h-448l509 459l14 89h-568l-15 -95h423z" />
    <glyph glyph-name="braceleft" unicode="{" horiz-adv-x="378" 
d="M90 370l-14 -96h19q34 0 50 -23t11 -56l-22 -140q-13 -80 25 -134t123 -54h19l15 95h-10q-39 0 -56 16t-16 44t8 67q1 5 4.5 25.5t5.5 32.5q6 40 6 59q-3 69 -47 105q-2 2 -6.5 5.5t-6.5 5.5l17 11q74 49 88 143l21 131q5 33 29.5 53.5t57.5 20.5h19l15 95h-19
q-85 0 -140 -53.5t-68 -133.5l-22 -140q-5 -34 -28.5 -56.5t-57.5 -22.5h-20z" />
    <glyph glyph-name="bar" unicode="|" horiz-adv-x="289" 
d="M216 777l-144 -910h104l144 910h-104z" />
    <glyph glyph-name="braceright" unicode="}" horiz-adv-x="377" 
d="M50 -38l-15 -95h20q85 0 140 54t68 134l22 140q5 33 28.5 56t56.5 23h20l15 96h-20q-33 0 -49 22.5t-11 56.5l22 140q13 80 -25.5 133.5t-122.5 53.5h-20l-15 -95h10q56 0 67.5 -34t-4.5 -91q-1 -9 -4.5 -28t-5.5 -30q-4 -27 -4 -59q2 -70 47 -106q13 -10 14 -11l-17 -11
q-77 -49 -91 -143l-21 -132q-5 -33 -28.5 -53.5t-56.5 -20.5h-20z" />
    <glyph glyph-name="cent" unicode="&#xa2;" horiz-adv-x="555" 
d="M202 -126h80l31 195q162 26 230 183l5 11h-83l-3 -7q-41 -87 -137 -112l56 356q46 -14 70 -40t31 -72l2 -6h83l-2 11q-20 155 -172 182l30 188h-80l-30 -191q-96 -20 -156.5 -89.5t-74.5 -161.5q-15 -91 23.5 -160t127.5 -89zM301 496l-56 -349q-52 21 -73 67t-11 107
q22 133 140 175z" />
    <glyph glyph-name="sterling" unicode="&#xa3;" horiz-adv-x="569" 
d="M202 119q42 44 57.5 78.5t25.5 99.5l2 11h123l14 87h-142q-16 77 -9 123q8 48 40 81t79 33q72 0 81 -91l1 -9l108 18v10q-3 74 -49.5 121t-125.5 47q-97 0 -160.5 -61t-77.5 -152q-8 -49 3 -120h-78l-14 -87h95q2 -24 -1 -44q-15 -91 -120 -170l-6 -4l26 -99l11 6
q61 33 110 33q30 0 99 -21q24 -8 52 -15q24 -7 55 -7q48 0 112 25l10 4l-28 96l-10 -3q-53 -19 -84 -19q-23 0 -50 8q-34 10 -51 14q-32 7 -98 7z" />
    <glyph glyph-name="yen" unicode="&#xa5;" horiz-adv-x="548" 
d="M235 137l-21 -128h103l21 128h167l13 82h-167l12 80h167l13 82h-124l187 299h-112l-166 -267l-77 267h-112l90 -299h-123l-13 -82h167l-12 -80h-167l-13 -82h167z" />
    <glyph glyph-name="copyright" unicode="&#xa9;" horiz-adv-x="837" 
d="M401 664q-145 0 -244.5 -99.5t-99.5 -236.5t99.5 -236.5t244.5 -99.5t244.5 99.5t99.5 236.5t-99.5 236.5t-244.5 99.5zM401 544q92 0 155.5 -64t63.5 -152t-63 -151.5t-156 -63.5t-156 63.5t-63 151.5t63.5 152t155.5 64zM402 508q-78 0 -126 -52.5t-48 -125.5
t48 -125.5t126 -52.5q73 0 118 45t55 114l1 11h-101l-2 -8q-5 -29 -24 -47.5t-47 -18.5q-33 0 -53 24t-20 58t20 58t53 24q29 0 47.5 -17.5t23.5 -47.5l2 -8h101l-1 11q-9 69 -54.5 113.5t-118.5 44.5z" />
    <glyph glyph-name="registered" unicode="&#xae;" horiz-adv-x="758" 
d="M401 664q-145 0 -244.5 -99.5t-99.5 -236.5t99.5 -236.5t244.5 -99.5t244.5 99.5t99.5 236.5t-99.5 236.5t-244.5 99.5zM259 179h90v109h56l65 -109h90q-66 -66 -159 -66t-156 63.5t-63 151.5t63.5 152t155.5 64t155.5 -64t63.5 -152q0 -81 -53 -140l-3 5q-52 89 -61 103
q27 11 41.5 35t14.5 53q0 41 -26 69t-70 28h-204v-302zM349 373v23h114q5 0 5 -7v-8q0 -8 -5 -8h-114z" />
    <glyph glyph-name="degree" unicode="&#xb0;" horiz-adv-x="524" 
d="M366 656q-93 0 -155.5 -56.5t-76.5 -143.5t30.5 -144.5t136.5 -57.5q93 0 156 57.5t77 145.5q14 87 -31 143t-137 56zM351 561q44 0 64.5 -30t13.5 -75t-38 -75.5t-75 -30.5t-65 30t-14 75t38 75.5t76 30.5z" />
    <glyph glyph-name="multiply" unicode="&#xd7;" horiz-adv-x="631" 
d="M355 249l137 -178l82 73l-140 177l196 178l-58 73l-193 -177l-140 177l-79 -73l137 -177l-193 -177l56 -74z" />
    <glyph glyph-name="divide" unicode="&#xf7;" 
d="M425 589q-30 0 -50 -20t-24 -47q-5 -27 9 -47t44 -20q29 0 50 20t26 47q4 27 -11 47t-44 20zM152 370l-16 -96h480l16 96h-480zM362 189q-30 0 -50.5 -20.5t-24.5 -47.5t10.5 -47t43.5 -20t50 20t25 47t-10 47.5t-44 20.5z" />
    <glyph glyph-name="endash" unicode="&#x2013;" horiz-adv-x="979" 
d="M152 370l-16 -96h794l16 96h-794z" />
    <glyph glyph-name="emdash" unicode="&#x2014;" horiz-adv-x="1228" 
d="M152 370l-16 -96h1043l16 96h-1043z" />
    <glyph glyph-name="quoteleft" unicode="&#x2018;" horiz-adv-x="265" 
d="M252 647q-100 -76 -116 -181q-6 -35 6.5 -63.5t51.5 -28.5q34 0 55 23t25 54q6 31 -7 47.5t-42 25.5q27 58 56 94l4 6l-25 29z" />
    <glyph glyph-name="quoteright" unicode="&#x2019;" horiz-adv-x="265" 
d="M142 406l25 -29l9 6q45 36 76.5 83.5t39.5 97.5q6 36 -6 64t-51 28q-35 0 -55.5 -22.5t-25.5 -54.5q-5 -31 7.5 -47t41.5 -25q-27 -57 -56 -95z" />
    <glyph glyph-name="quotesinglbase" unicode="&#x201a;" horiz-adv-x="265" 
d="M80 13l24 -32l8 7q46 36 78 83.5t40 98.5q6 36 -6 64.5t-51 28.5q-35 0 -56 -23t-26 -54q-5 -32 8 -48t42 -26q-30 -61 -56 -93z" />
    <glyph glyph-name="quotedblleft" unicode="&#x201c;" horiz-adv-x="515" 
d="M252 647q-100 -76 -116 -181q-6 -35 6.5 -63.5t51.5 -28.5q34 0 55 23t25 54q6 31 -7 47.5t-42 25.5q27 58 56 94l4 6l-25 29zM502 647q-99 -77 -115 -181q-6 -35 6 -63.5t50 -28.5q35 0 56 23t25 54q6 31 -6.5 47t-41.5 26q26 58 55 94l5 6l-25 29z" />
    <glyph glyph-name="quotedblright" unicode="&#x201d;" horiz-adv-x="515" 
d="M142 406l25 -29l9 6q45 36 76.5 83.5t39.5 97.5q6 35 -6.5 63.5t-50.5 28.5q-35 0 -55.5 -22.5t-25.5 -54.5q-5 -31 7.5 -47t41.5 -25q-27 -57 -56 -95zM392 406l26 -29l8 6q100 78 116 181q6 36 -6 64t-51 28q-34 0 -54.5 -23t-25.5 -54q-5 -32 7.5 -47.5t40.5 -24.5
q-25 -56 -56 -95z" />
    <glyph glyph-name="quotedblbase" unicode="&#x201e;" horiz-adv-x="515" 
d="M80 13l24 -32l8 7q102 80 118 181q6 36 -6.5 65t-51.5 29q-35 0 -55.5 -23t-25.5 -54q-5 -32 8 -48t42 -26q-30 -61 -56 -93zM331 13l23 -32l9 7q101 80 117 181q2 20 1 41t-16.5 37t-42.5 16q-34 0 -54.5 -23t-25.5 -54t7.5 -47.5t41.5 -26.5q-25 -55 -55 -93z" />
    <glyph glyph-name="bullet" unicode="&#x2022;" horiz-adv-x="353" 
d="M246 443q-55 0 -90 -35t-43 -87q-8 -51 16 -86t79 -35t90.5 35t43.5 86q8 52 -16.5 87t-79.5 35z" />
    <glyph glyph-name="Euro" unicode="&#x20ac;" horiz-adv-x="698" 
d="M74 274h64q2 -125 67.5 -206t195.5 -81q149 0 256 103l7 7l-70 71l-9 -8q-72 -70 -164 -70q-77 0 -119 47t-50 123q0 4 -2 14h304l16 96h-304q1 3 3.5 8t2.5 6q32 76 89 123.5t133 47.5q93 0 143 -71l5 -8l93 70l-4 7q-73 103 -223 103q-131 0 -222.5 -80.5
t-131.5 -205.5h-64z" />
    <glyph glyph-name="uni2120" unicode="&#x2120;" horiz-adv-x="781" 
d="M31 428v-18q0 -33 17 -58t45 -38t57.5 -19.5t59.5 -6.5q59 0 103.5 22t57.5 70v-87h101v129l33 -129h91l34 131v-131h102v370h-139l-42 -169l-43 169h-137v-215q-19 67 -122 77q-7 1 -37 2t-43 3q-28 5 -28 16t19 17q20 6 39 6q23 0 44 -7q23 -7 23 -20v-18h103v18
q0 43 -29 72t-66.5 39.5t-78.5 10.5q-67 0 -112.5 -30t-45.5 -93q0 -58 35 -80.5t92 -27.5q12 -1 40 -2.5t40 -3.5q29 -4 29 -17q0 -14 -22 -21q-21 -6 -43 -6q-24 0 -48 7q-27 7 -27 20v18h-102z" />
    <glyph glyph-name="trademark" unicode="&#x2122;" horiz-adv-x="742" 
d="M130 568v-275h106v275h96v-275h102v129l33 -129h90l35 134v-134h101v370h-138l-42 -169l-44 169h-438v-95h99z" />
    <glyph glyph-name="minus" unicode="&#x2212;" 
d="M152 370l-16 -96h480l16 96h-480z" />
    <glyph glyph-name="_FSHallmark" horiz-adv-x="1137" 
d="M53 732v103h1035v-103h-1035zM866 242q-99 0 -164 44.5t-65 112.5l119 -1q0 -4 6 -18q8 -23 36.5 -38.5t65.5 -15.5q39 0 67.5 12t28.5 28q0 18 -32 30.5t-78 22.5t-92.5 23t-78.5 40.5t-32 67.5q0 54 64 90.5t158 36.5q92 0 150.5 -39.5t58.5 -100.5h-124q0 21 -28 38.5
t-62 17.5t-60 -15t-26 -34q0 -25 29 -41q15 -8 37 -13.5t55 -11t48 -8.5q76 -14 102 -31q38 -24 38 -69q0 -55 -63 -91.5t-158 -36.5zM53 242v434h435v-99h-299v-97h248v-96h-248v-142h-136zM542 244q-26 0 -45.5 16.5t-19.5 38.5q0 20 17 33.5t43 13.5q29 0 50 -15t21 -36
q0 -20 -20 -35.5t-46 -15.5zM49 85v104h1038v-104h-1038z" />
    <glyph glyph-name="_Fontastica" horiz-adv-x="968" 
d="M50 156q-1 2 -1 7v705h627v-107h-482v-292h485v-109h-485v-204h-144zM284 157v108h486v291h-486v110h486v202h144v-711h-630zM785 43q-11 0 -27 6q-12 18 -12 27q0 11 12.5 21t27.5 10q16 0 28 -12l-6 -8q-12 7 -18 7q-11 0 -19 -6.5t-8 -14.5q0 -17 23 -17q10 0 22 5
l6 -5q-10 -13 -29 -13zM50 44v61h54v-11h-35v-16h34v-10h-34v-24h-19zM168 40q-14 0 -26 10.5t-12 23.5t11.5 22t28.5 9q26 0 35 -17q7 -6 7 -16q0 -14 -9.5 -20.5t-21.5 -8.5t-13 -3zM299 43l-11 6q-2 4 -12.5 16.5t-16.5 16.5v-38h-16v61h14q5 0 7 -7q3 -3 8.5 -8t8.5 -8
l6 -9t7 -9v41h15v-61q-7 0 -10 -1zM363 44v50h-22v11h61v-11h-24v-50h-15zM553 43q-23 0 -33 9l5 9q15 -5 22 -5h10q3 3 5 3q0 9 -19 11t-19 15q0 20 30 20q16 0 26 -5l-5 -12q-2 1 -8.5 2.5t-9.5 3.5h-10q-3 0 -5 -4q0 -5 5 -8q33 -3 33 -22q0 -17 -27 -17zM627 44v50h-22
v11h62v-11h-22v-50h-18zM696 44v61h19v-61h-19zM839 44q20 37 29 61h20l15 -28q1 -5 7 -17.5t9 -15.5h-16l-7 13h-35l-6 -13h-16zM417 44l30 59h17q2 -4 8.5 -14t9.5 -17l11 -28h-16l-1 5q-2 2 -4 8h-33q-2 -6 -2 -8l-5 -5h-15zM169 55q21 0 21 19q0 20 -22 20
q-2 -1 -8.5 -4t-10.5 -6.5t-4 -8.5q0 -4 3 -7q4 -13 21 -13zM442 68h24q-2 7 -5 10t-3 7l-2 5zM865 68h24l-1 5q-3 1 -4 6t-3 6q-2 4 -3 5z" />
    </font>
</defs>
</svg>
