<?xml version="1.0" standalone="no"?>
<!DOCTYPE svg PUBLIC "-//W3C//DTD SVG 1.1//EN" "http://www.w3.org/Graphics/SVG/1.1/DTD/svg11.dtd" >
<svg xmlns="http://www.w3.org/2000/svg" xmlns:xlink="http://www.w3.org/1999/xlink" version="1.1">
<metadata>
Created by FontForge 20170731 at Tue Jul  9 20:53:05 2019
 By Aleksey,,,
Copyright (c) 2019 by Fontastica. All rights reserved.
</metadata>
<defs>
<font id="Nord-Medium" horiz-adv-x="766" >
  <font-face 
    font-family="Nord Medium"
    font-weight="500"
    font-stretch="normal"
    units-per-em="1000"
    panose-1="0 0 6 0 0 0 0 0 0 0"
    ascent="800"
    descent="-200"
    x-height="650"
    cap-height="650"
    bbox="3 -146 1143 868"
    underline-thickness="50"
    underline-position="-200"
    unicode-range="U+0020-2212"
  />
<missing-glyph horiz-adv-x="411" 
 />
    <glyph glyph-name=".notdef" horiz-adv-x="411" 
 />
    <glyph glyph-name=".null" horiz-adv-x="0" 
 />
    <glyph glyph-name="nonmarkingreturn" horiz-adv-x="333" 
 />
    <glyph glyph-name="space" unicode=" " horiz-adv-x="309" 
 />
    <glyph glyph-name="exclam" unicode="!" horiz-adv-x="321" 
d="M124 228q-25 130 -25 292v130h123v-130q0 -72 -6 -145t-12 -110l-6 -37h-74zM161 -13q-37 0 -58.5 23.5t-21.5 61.5t21.5 61t58.5 23q36 0 58 -23t22 -61t-22 -61.5t-58 -23.5z" />
    <glyph glyph-name="quotedbl" unicode="&#x22;" horiz-adv-x="469" 
d="M105 390q-24 65 -24 163v97h123v-97q0 -44 -6 -84.5t-12 -59.5l-6 -19h-75zM291 390q-25 65 -25 163v97h124v-97q0 -44 -6 -84.5t-12 -59.5l-7 -19h-74z" />
    <glyph glyph-name="numbersign" unicode="#" horiz-adv-x="803" 
d="M141 0l27 143h-100v104h120l30 156h-100v104h120l26 143h114l-27 -143h146l26 143h114l-27 -143h101v-104h-121l-29 -156h100v-104h-120l-27 -143h-114l28 143h-147l-26 -143h-114zM301 247h146l30 156h-146z" />
    <glyph glyph-name="dollar" unicode="$" horiz-adv-x="553" 
d="M529 213q0 -173 -227 -188v-102h-83v104q-99 10 -157.5 58.5t-58.5 123.5h109q0 -30 28.5 -50t78.5 -28v148q-108 7 -157 46t-49 119q0 79 52.5 124.5t153.5 54.5v97h83v-97q98 -8 157.5 -57t59.5 -126h-110q0 31 -29 52t-78 27v-137q119 -4 173 -44.5t54 -124.5z
M124 444q0 -26 22.5 -40.5t72.5 -19.5v134q-95 -11 -95 -74zM302 130q57 4 87.5 26t30.5 57q0 31 -28 46t-90 19v-148z" />
    <glyph glyph-name="percent" unicode="%" horiz-adv-x="951" 
d="M247 338q-83 0 -134 54t-51 141q0 85 52.5 140t132.5 55q81 0 133 -55t52 -140q0 -88 -51 -141.5t-134 -53.5zM267 25l-77 80l494 520l77 -80zM247 449q34 0 54 23t20 61q0 39 -20 62t-54 23t-54 -23.5t-20 -61.5q0 -39 20 -61.5t54 -22.5zM704 -78q-83 0 -134 54
t-51 141q0 85 52.5 140t132.5 55q81 0 133 -55t52 -140q0 -88 -51 -141.5t-134 -53.5zM704 33q34 0 54 23t20 61q0 39 -20 62t-54 23t-54 -23.5t-20 -61.5q0 -39 20 -61.5t54 -22.5z" />
    <glyph glyph-name="ampersand" unicode="&#x26;" horiz-adv-x="668" 
d="M564 -20q-56 30 -100 76q-40 -37 -80 -52q-44 -18 -103 -18q-115 0 -174 69q-45 53 -45 122q0 65 36 114q34 49 106 86q-30 38 -47 76q-17 37 -17 68q0 61 46 101q46 41 128 41q80 0 126 -43q45 -44 45 -105q0 -41 -22 -76q-23 -37 -90 -81l85 -120q16 28 27 74l108 -26
q-17 -62 -28 -88q-12 -29 -25 -46q17 -17 51 -43q32 -26 46 -32zM276 90q30 0 55 12q24 10 56 37l-121 159q-43 -24 -61 -53q-21 -31 -21 -63q0 -41 26 -67q25 -25 66 -25zM313 433l32 26q35 30 35 57q0 25 -17 42t-47 17q-28 0 -44 -15q-17 -16 -16 -35q1 -22 28 -56z" />
    <glyph glyph-name="quotesingle" unicode="'" horiz-adv-x="284" 
d="M105 390q-24 65 -24 163v97h123v-97q0 -44 -6 -84.5t-12 -59.5l-6 -19h-75z" />
    <glyph glyph-name="parenleft" unicode="(" horiz-adv-x="330" 
d="M209 -146q-6 7 -16 20t-35 58.5t-44.5 96t-35.5 131t-16 165.5t15 164.5t37 133t43.5 94.5t36.5 60l15 19l90 -64q-5 -6 -12.5 -18t-27 -52.5t-34.5 -85t-27.5 -113t-12.5 -138.5t11.5 -138t28.5 -114.5t34 -83t29 -53.5l11 -18z" />
    <glyph glyph-name="parenright" unicode=")" horiz-adv-x="330" 
d="M121 -146l-90 64q5 6 12.5 18t27 52.5t34.5 85t27 113t12 138.5t-11.5 138t-28 114.5t-33.5 83t-29 53.5l-11 18l90 64q6 -7 16 -20t35 -58.5t44.5 -96t35.5 -131t16 -165.5t-15 -164.5t-37 -133t-43.5 -94.5t-36.5 -60z" />
    <glyph glyph-name="asterisk" unicode="*" horiz-adv-x="488" 
d="M200 260v85q0 8 4.5 23t9.5 26l4 10l-3 2q-25 -35 -41 -46l-69 -41l-43 79l69 41q7 4 21.5 8t24.5 5.5t12 1.5v2q-42 6 -58 16l-69 42l43 79l69 -42q7 -4 17 -15.5t17 -20.5l7 -9l3 1q-18 40 -18 60v83h87v-83q0 -9 -4 -24t-8 -25l-4 -11l2 -1q24 35 41 44l69 43l44 -79
l-70 -42q-7 -4 -21.5 -8t-25.5 -6l-11 -2v-2q42 -5 58 -15l70 -41l-44 -79l-69 41q-8 5 -18 16.5t-16 20.5l-7 9l-2 -2q16 -40 16 -59v-85h-87z" />
    <glyph glyph-name="plus" unicode="+" horiz-adv-x="679" 
d="M278 65v202h-185v117h185v201h124v-201h185v-117h-185v-202h-124z" />
    <glyph glyph-name="comma" unicode="," horiz-adv-x="321" 
d="M135 -143l-44 43q29 32 46 90q-26 8 -41 29.5t-15 52.5q0 38 21.5 61t58.5 23q80 0 80 -97q0 -37 -11 -71t-26.5 -57t-31 -40.5t-26.5 -25.5z" />
    <glyph glyph-name="hyphen" unicode="-" horiz-adv-x="618" 
d="M93 267v117h432v-117h-432z" />
    <glyph glyph-name="period" unicode="." horiz-adv-x="321" 
d="M161 -13q-37 0 -58.5 23.5t-21.5 61.5t21.5 61t58.5 23q36 0 58 -23t22 -61t-22 -61.5t-58 -23.5z" />
    <glyph glyph-name="slash" unicode="/" horiz-adv-x="569" 
d="M149 -91l-100 52l371 780l100 -52z" />
    <glyph glyph-name="zero" unicode="0" horiz-adv-x="741" 
d="M371 -13q-141 0 -215.5 87t-74.5 251q0 163 75 250.5t215 87.5q141 0 215.5 -87t74.5 -251q0 -163 -75 -250.5t-215 -87.5zM371 111q79 0 119.5 54.5t40.5 159.5t-40.5 160t-119.5 55t-120 -55t-41 -160t41 -159.5t120 -54.5z" />
    <glyph glyph-name="one" unicode="1" horiz-adv-x="309" 
d="M93 0v650h124v-650h-124z" />
    <glyph glyph-name="two" unicode="2" horiz-adv-x="679" 
d="M74 0v91q0 80 65 150.5t186 119.5q74 31 100 52t26 49q0 78 -118 78q-55 0 -85.5 -26t-30.5 -65h-131q0 99 64.5 156.5t182.5 57.5q114 0 180.5 -54.5t66.5 -146.5q0 -71 -46.5 -118t-162.5 -94q-154 -64 -154 -133h376v-117h-519z" />
    <glyph glyph-name="three" unicode="3" horiz-adv-x="679" 
d="M340 -13q-126 0 -192.5 52t-66.5 150h129q0 -78 130 -78q129 0 129 78t-129 78h-93v117h93q111 0 111 78t-118 78q-116 0 -116 -78h-131q0 97 64 149t183 52q120 0 183.5 -51.5t63.5 -149.5q0 -89 -65 -133q84 -43 84 -140t-67 -149.5t-192 -52.5z" />
    <glyph glyph-name="four" unicode="4" horiz-adv-x="680" 
d="M383 0v130h-346v104l358 416h111v-403h112v-117h-112v-130h-123zM194 247h189v220z" />
    <glyph glyph-name="five" unicode="5" horiz-adv-x="679" 
d="M340 -13q-126 0 -192.5 52t-66.5 150h129q0 -78 130 -78q129 0 129 88q0 87 -129 87h-247v364h463v-117h-339v-130h123q125 0 192 -53t67 -151q0 -103 -67 -157.5t-192 -54.5z" />
    <glyph glyph-name="six" unicode="6" horiz-adv-x="679" 
d="M352 -13q-142 0 -216 87t-74 251q0 161 75 249.5t210 88.5q111 0 178.5 -55t67.5 -146h-129q0 34 -32.5 56t-84.5 22q-142 0 -154 -179q81 49 172 49q115 0 184 -57t69 -151q0 -99 -72 -157t-194 -58zM353 111q61 0 98 25t37 66q0 44 -37.5 67.5t-108.5 23.5t-143 -52
q14 -67 51 -98.5t103 -31.5z" />
    <glyph glyph-name="seven" unicode="7" horiz-adv-x="637" 
d="M180 0l240 533h-352v117h494v-104l-247 -546h-135z" />
    <glyph glyph-name="eight" unicode="8" horiz-adv-x="679" 
d="M340 -13q-126 0 -192.5 52t-66.5 150q0 91 92 140q-74 49 -74 133q0 97 62.5 149t178.5 52t178 -52t62 -149q0 -84 -74 -133q93 -49 93 -140q0 -97 -67 -149.5t-192 -52.5zM340 384q111 0 111 78q0 38 -28.5 58t-82.5 20q-111 0 -111 -78t111 -78zM340 111q129 0 129 78
t-129 78q-63 0 -96.5 -20t-33.5 -58q0 -78 130 -78z" />
    <glyph glyph-name="nine" unicode="9" horiz-adv-x="679" 
d="M333 -13q-115 0 -193 56t-78 146h130q0 -34 43 -56t98 -22q141 0 153 178q-78 -48 -171 -48q-115 0 -184 56.5t-69 151.5q0 98 71.5 156t194.5 58q142 0 216 -87t74 -251q0 -160 -75 -249t-210 -89zM337 358q72 0 144 52q-25 130 -153 130q-62 0 -99 -25t-37 -66
q0 -91 145 -91z" />
    <glyph glyph-name="colon" unicode=":" horiz-adv-x="321" 
d="M161 371q-37 0 -58.5 23t-21.5 61t21.5 61.5t58.5 23.5q36 0 58 -23.5t22 -61.5t-22 -61t-58 -23zM161 -13q-37 0 -58.5 23.5t-21.5 61.5t21.5 61t58.5 23q36 0 58 -23t22 -61t-22 -61.5t-58 -23.5z" />
    <glyph glyph-name="semicolon" unicode=";" horiz-adv-x="321" 
d="M161 371q-37 0 -58.5 23t-21.5 61t21.5 61.5t58.5 23.5q36 0 58 -23.5t22 -61.5t-22 -61t-58 -23zM135 -143l-44 43q29 32 46 90q-26 8 -41 29.5t-15 52.5q0 38 21.5 61t58.5 23q80 0 80 -97q0 -37 -11 -71t-26.5 -57t-31 -40.5t-26.5 -25.5z" />
    <glyph glyph-name="equal" unicode="=" horiz-adv-x="679" 
d="M93 397v117h494v-117h-494zM93 137v117h494v-117h-494z" />
    <glyph glyph-name="question" unicode="?" horiz-adv-x="716" 
d="M321 228q-25 65 -25 97v65h62q91 0 132 16t41 53q0 87 -173 87q-78 0 -125.5 -25t-47.5 -66h-123q0 94 81.5 151t214.5 57q145 0 221 -52t76 -152q0 -90 -58 -134t-186 -51l-16 -46h-74zM358 -13q-36 0 -58 23.5t-22 61.5t22 61t58 23q37 0 59 -23t22 -61t-22 -61.5
t-59 -23.5z" />
    <glyph glyph-name="at" unicode="@" horiz-adv-x="1013" 
d="M559 -143q-224 0 -360.5 128.5t-136.5 339.5t121 339.5t320 128.5q200 0 321.5 -110.5t121.5 -292.5q0 -99 -51.5 -169t-142 -93.5t-212.5 8.5q-26 -13 -61 -13q-39 0 -71 15q-33 15 -57 42q-26 28 -38 64q-15 36 -15 80q0 39 14 76q11 34 37 63q23 26 57 43q32 16 71 16
q68 0 111 -49v37h126v-279q47 16 73.5 58t26.5 101q0 127 -86 206.5t-224 79.5q-141 0 -226.5 -96.5t-85.5 -254.5t100 -254.5t265 -96.5q60 0 111 12t72 24l21 12l53 -92q-4 -3 -10.5 -8t-31 -17.5t-51.5 -22t-71 -17.5t-91 -8zM510 237q18 0 32 7q17 8 26 19q9 9 17 27
q7 14 7 32q0 19 -7 34q-9 18 -17 27q-10 10 -26 18q-14 7 -32 7t-31 -7q-15 -7 -26 -18q-11 -13 -17 -27q-7 -14 -7 -32q0 -20 7 -34q6 -16 17 -27q10 -12 26 -19q13 -7 31 -7z" />
    <glyph glyph-name="A" unicode="A" 
d="M37 0l254 650h185l253 -650h-133l-64 166h-301l-63 -166h-131zM274 283h216l-110 269z" />
    <glyph glyph-name="B" unicode="B" horiz-adv-x="778" 
d="M93 0v650h408q83 0 134 -53.5t51 -141.5q0 -76 -56 -122q81 -44 81 -138q0 -88 -51 -141.5t-135 -53.5h-432zM217 384h284q28 0 44.5 18t16.5 47v19q0 29 -16.5 47t-44.5 18h-284v-149zM217 117h308q28 0 45 18t17 47v20q0 29 -17 47t-45 18h-308v-150z" />
    <glyph glyph-name="C" unicode="C" horiz-adv-x="762" 
d="M383 -13q-139 0 -230 96t-91 242t91 242t230 96q124 0 211 -77t106 -202h-132q-16 70 -66 113t-119 43q-83 0 -137 -61t-54 -154q0 -92 54 -153t137 -61q69 0 119 43t66 113h132q-19 -125 -105.5 -202.5t-211.5 -77.5z" />
    <glyph glyph-name="D" unicode="D" horiz-adv-x="785" 
d="M93 0v650h309q139 0 230 -92t91 -233q0 -140 -91 -232.5t-230 -92.5h-309zM217 117h185q83 0 137 58.5t54 149.5q0 90 -54 149t-137 59h-185v-416z" />
    <glyph glyph-name="E" unicode="E" horiz-adv-x="772" 
d="M93 0v650h605v-117h-481v-149h358v-117h-358v-150h481v-117h-605z" />
    <glyph glyph-name="F" unicode="F" horiz-adv-x="748" 
d="M93 0v650h593v-117h-469v-149h345v-117h-345v-267h-124z" />
    <glyph glyph-name="G" unicode="G" 
d="M383 -13q-139 0 -230 96t-91 242t91 242t230 96q104 0 183.5 -55.5t115.5 -149.5l-143 -2q-57 84 -156 84q-83 0 -137 -61t-54 -154q0 -92 54 -153t137 -61q67 0 116.5 41t67.5 108h-184v117h317q4 -23 4 -52q0 -34 -4 -58q-19 -125 -105.5 -202.5t-211.5 -77.5z" />
    <glyph glyph-name="H" unicode="H" horiz-adv-x="803" 
d="M93 0v650h124v-266h370v266h124v-650h-124v267h-370v-267h-124z" />
    <glyph glyph-name="I" unicode="I" horiz-adv-x="309" 
d="M93 0v650h124v-650h-124z" />
    <glyph glyph-name="J" unicode="J" horiz-adv-x="655" 
d="M315 -13q-106 0 -176.5 74t-70.5 186h124q0 -59 35 -97.5t88 -38.5t88.5 39t35.5 97v403h123v-403q0 -112 -70.5 -186t-176.5 -74z" />
    <glyph glyph-name="K" unicode="K" 
d="M93 0v650h124v-315l331 315h176l-288 -272l288 -378h-151l-224 295l-132 -125v-170h-124z" />
    <glyph glyph-name="L" unicode="L" horiz-adv-x="637" 
d="M93 0v650h124v-533h370v-117h-494z" />
    <glyph glyph-name="M" unicode="M" horiz-adv-x="803" 
d="M93 0v650h111l199 -273l196 273h112v-650h-124v437l-123 -177h-124l-123 177v-437h-124z" />
    <glyph glyph-name="N" unicode="N" horiz-adv-x="803" 
d="M93 0v650h111l383 -448v448h124v-650h-112l-382 449v-449h-124z" />
    <glyph glyph-name="O" unicode="O" 
d="M383 -13q-139 0 -230 96t-91 242t91 242t230 96t230 -96t91 -242t-91 -242t-230 -96zM383 111q83 0 137.5 61t54.5 153q0 93 -54.5 154t-137.5 61t-137 -61t-54 -154q0 -92 54 -153t137 -61z" />
    <glyph glyph-name="P" unicode="P" horiz-adv-x="778" 
d="M93 0v650h445q83 0 134 -53.5t51 -141.5q0 -84 -51 -136t-134 -52h-321v-267h-124zM217 384h321q28 0 44.5 18t16.5 47v19q0 29 -16.5 47t-44.5 18h-321v-149z" />
    <glyph glyph-name="Q" unicode="Q" 
d="M639 -24l-69 70q-82 -59 -187 -59q-139 0 -230 96t-91 242t91 242t230 96t230 -96t91 -242q0 -113 -56 -197l71 -79zM383 111q56 0 100 28l-107 115l83 77l96 -104q20 48 20 98q0 93 -54.5 154t-137.5 61t-137 -61t-54 -154q0 -92 54 -153t137 -61z" />
    <glyph glyph-name="R" unicode="R" horiz-adv-x="790" 
d="M93 0v650h445q83 0 134 -53.5t51 -141.5q0 -78 -44.5 -128.5t-117.5 -58.5l162 -268h-140l-156 267h-210v-267h-124zM217 384h321q28 0 44.5 18t16.5 47v19q0 29 -16.5 47t-44.5 18h-321v-149z" />
    <glyph glyph-name="S" unicode="S" horiz-adv-x="716" 
d="M358 -13q-133 0 -214.5 57t-81.5 151h123q0 -41 47.5 -66t125.5 -25q84 0 128.5 24.5t44.5 70.5q0 39 -42.5 56.5t-135.5 17.5q-147 0 -213 44t-66 142q0 100 72.5 152t211.5 52q128 0 206 -57t78 -151h-123q0 41 -44.5 66t-116.5 25q-160 0 -160 -87q0 -37 39 -53
t128 -16q152 0 221 -45.5t69 -145.5q0 -103 -76 -157.5t-221 -54.5z" />
    <glyph glyph-name="T" unicode="T" horiz-adv-x="716" 
d="M296 0v533h-247v117h618v-117h-247v-533h-124z" />
    <glyph glyph-name="U" unicode="U" horiz-adv-x="778" 
d="M390 -13q-128 0 -212.5 92.5t-84.5 232.5v338h124v-338q0 -88 48.5 -144.5t124.5 -56.5q74 0 123 56.5t49 144.5v338h124v-338q0 -140 -84 -232.5t-212 -92.5z" />
    <glyph glyph-name="V" unicode="V" 
d="M291 0l-254 650h133l208 -533h12l208 533h131l-253 -650h-185z" />
    <glyph glyph-name="W" unicode="W" horiz-adv-x="827" 
d="M124 0l-75 650h121l53 -436l129 306h124l137 -305l44 435h121l-74 -650h-129l-162 389l-159 -389h-130z" />
    <glyph glyph-name="X" unicode="X" horiz-adv-x="742" 
d="M25 0l266 337l-247 313h157l172 -217l171 217h155l-251 -311l269 -339h-161l-191 243l-189 -243h-151z" />
    <glyph glyph-name="Y" unicode="Y" horiz-adv-x="692" 
d="M284 0v228l-259 422h142l121 -195q18 -29 32 -58t20 -44l5 -15h2q18 52 57 117l119 195h144l-259 -422v-228h-124z" />
    <glyph glyph-name="Z" unicode="Z" horiz-adv-x="753" 
d="M74 0v104l412 429h-400v117h581v-104l-413 -429h425v-117h-605z" />
    <glyph glyph-name="bracketleft" unicode="[" horiz-adv-x="366" 
d="M93 -130v910h216v-117h-92v-676h92v-117h-216z" />
    <glyph glyph-name="backslash" unicode="\" horiz-adv-x="569" 
d="M420 -91l-371 780l100 52l371 -780z" />
    <glyph glyph-name="bracketright" unicode="]" horiz-adv-x="366" 
d="M57 -130l-1 117h92l1 676h-93v117h216v-910h-215z" />
    <glyph glyph-name="underscore" unicode="_" horiz-adv-x="618" 
d="M93 -124v117h432v-117h-432z" />
    <glyph glyph-name="a" unicode="a" 
d="M37 0l254 650h185l253 -650h-133l-64 166h-301l-63 -166h-131zM273 283h217l-110 270z" />
    <glyph glyph-name="b" unicode="b" horiz-adv-x="778" 
d="M93 0v650h408q83 0 134 -53.5t51 -141.5q0 -76 -56 -122q81 -44 81 -138q0 -88 -51 -141.5t-135 -53.5h-432zM217 384h284q28 0 44.5 18t16.5 47v19q0 29 -16.5 47t-44.5 18h-284v-149zM217 117h308q28 0 45 18t17 47v20q0 29 -17 47t-45 18h-308v-150z" />
    <glyph glyph-name="c" unicode="c" horiz-adv-x="762" 
d="M383 -13q-139 0 -230 96t-91 242t91 242t230 96q124 0 211 -77t106 -202h-132q-16 70 -66 113t-119 43q-83 0 -137 -61t-54 -154q0 -92 54 -153t137 -61q69 0 119 43t66 113h132q-19 -125 -105.5 -202.5t-211.5 -77.5z" />
    <glyph glyph-name="d" unicode="d" horiz-adv-x="785" 
d="M93 0v650h309q139 0 230 -92t91 -233q0 -140 -91 -232.5t-230 -92.5h-309zM217 117h185q83 0 137 58.5t54 149.5q0 90 -54 149t-137 59h-185v-416z" />
    <glyph glyph-name="e" unicode="e" horiz-adv-x="772" 
d="M93 0v650h605v-117h-481v-149h358v-117h-358v-150h481v-117h-605z" />
    <glyph glyph-name="f" unicode="f" horiz-adv-x="748" 
d="M93 0v650h593v-117h-469v-149h345v-117h-345v-267h-124z" />
    <glyph glyph-name="g" unicode="g" 
d="M383 -13q-139 0 -230 96t-91 242t91 242t230 96q104 0 183.5 -55.5t115.5 -149.5l-143 -2q-57 84 -156 84q-83 0 -137 -61t-54 -154q0 -92 54 -153t137 -61q67 0 116.5 41t67.5 108h-184v117h317q4 -23 4 -52q0 -34 -4 -58q-19 -125 -105.5 -202.5t-211.5 -77.5z" />
    <glyph glyph-name="h" unicode="h" horiz-adv-x="803" 
d="M93 0v650h124v-266h370v266h124v-650h-124v267h-370v-267h-124z" />
    <glyph glyph-name="i" unicode="i" horiz-adv-x="309" 
d="M93 0v650h124v-650h-124z" />
    <glyph glyph-name="j" unicode="j" horiz-adv-x="667" 
d="M328 -13q-107 0 -177 74t-70 186h123q0 -58 35.5 -97t88.5 -39t88 39t35 97v403h124v-403q0 -112 -70.5 -186t-176.5 -74z" />
    <glyph glyph-name="k" unicode="k" 
d="M93 0v650h124v-315l331 315h176l-288 -272l288 -378h-151l-224 295l-132 -125v-170h-124z" />
    <glyph glyph-name="l" unicode="l" horiz-adv-x="637" 
d="M93 0v650h124v-533h370v-117h-494z" />
    <glyph glyph-name="m" unicode="m" horiz-adv-x="803" 
d="M93 0v650h111l194 -273h9l192 273h112v-650h-124v455h-3q-12 -42 -34 -73l-86 -122h-124l-86 122q-10 14 -19 32t-13 30l-3 11h-2v-455h-124z" />
    <glyph glyph-name="n" unicode="n" horiz-adv-x="803" 
d="M93 0v650h111l383 -448v448h124v-650h-112l-382 449v-449h-124z" />
    <glyph glyph-name="o" unicode="o" 
d="M383 -13q-139 0 -230 96t-91 242t91 242t230 96t230 -96t91 -242t-91 -242t-230 -96zM383 111q83 0 137.5 61t54.5 153q0 93 -54.5 154t-137.5 61t-137 -61t-54 -154q0 -92 54 -153t137 -61z" />
    <glyph glyph-name="p" unicode="p" horiz-adv-x="785" 
d="M93 0v650h445q83 0 134 -53.5t51 -141.5q0 -84 -51 -136t-134 -52h-321v-267h-124zM217 384h321q28 0 44.5 18t16.5 47v19q0 29 -16.5 47t-44.5 18h-321v-149z" />
    <glyph glyph-name="q" unicode="q" 
d="M639 -24l-69 70q-82 -59 -187 -59q-139 0 -230 96t-91 242t91 242t230 96t230 -96t91 -242q0 -113 -56 -197l71 -79zM383 111q56 0 100 28l-107 115l83 77l96 -104q20 48 20 98q0 93 -54.5 154t-137.5 61t-137 -61t-54 -154q0 -92 54 -153t137 -61z" />
    <glyph glyph-name="r" unicode="r" horiz-adv-x="790" 
d="M93 0v650h445q83 0 134 -53.5t51 -141.5q0 -78 -44.5 -128.5t-117.5 -58.5q20 -28 22 -31l140 -237h-140l-156 267h-210v-267h-124zM217 384h321q28 0 44.5 18t16.5 47v19q0 29 -16.5 47t-44.5 18h-321v-149z" />
    <glyph glyph-name="s" unicode="s" horiz-adv-x="716" 
d="M358 -13q-133 0 -214.5 57t-81.5 151h123q0 -41 47.5 -66t125.5 -25q84 0 128.5 24.5t44.5 70.5q0 39 -42.5 56.5t-135.5 17.5q-147 0 -213 44t-66 142q0 100 72.5 152t211.5 52q128 0 206 -57t78 -151h-123q0 41 -44.5 66t-116.5 25q-160 0 -160 -87q0 -37 39 -53
t128 -16q152 0 221 -45.5t69 -145.5q0 -103 -76 -157.5t-221 -54.5z" />
    <glyph glyph-name="t" unicode="t" horiz-adv-x="716" 
d="M296 0v533h-247v117h618v-117h-247v-533h-124z" />
    <glyph glyph-name="u" unicode="u" horiz-adv-x="778" 
d="M390 -13q-128 0 -212.5 92.5t-84.5 232.5v338h124v-338q0 -88 48.5 -144.5t124.5 -56.5q74 0 123 56.5t49 144.5v338h124v-338q0 -140 -84 -232.5t-212 -92.5z" />
    <glyph glyph-name="v" unicode="v" 
d="M291 0l-254 650h133l208 -533h12l208 533h131l-253 -650h-185z" />
    <glyph glyph-name="w" unicode="w" horiz-adv-x="827" 
d="M124 0l-75 650h121l53 -435l129 305h124l137 -305l44 435h121l-74 -650h-129l-161 389l-160 -389h-130z" />
    <glyph glyph-name="x" unicode="x" horiz-adv-x="779" 
d="M37 0l275 337l-256 313h154l181 -221l177 221h156l-258 -313l276 -337h-155l-200 244l-195 -244h-155z" />
    <glyph glyph-name="y" unicode="y" horiz-adv-x="716" 
d="M296 0v228l-259 422h143l120 -195q18 -29 32 -58t20 -44l5 -15h2q18 52 57 117l120 195h143l-259 -422v-228h-124z" />
    <glyph glyph-name="z" unicode="z" horiz-adv-x="753" 
d="M74 0v104l412 429h-400v117h581v-104l-413 -429h425v-117h-605z" />
    <glyph glyph-name="braceleft" unicode="{" horiz-adv-x="396" 
d="M309 -130q-83 0 -134 53.5t-51 141.5v137q0 29 -17 47t-45 18h-31v117h31q28 0 45 18t17 47v136q0 88 51 141.5t134 53.5h31v-117h-31q-28 0 -45 -16t-17 -44v-128q0 -101 -71 -150q71 -49 71 -149v-129q0 -28 17 -44t45 -16h31v-117h-31z" />
    <glyph glyph-name="bar" unicode="|" horiz-adv-x="309" 
d="M93 -130v910l124 1v-911h-124z" />
    <glyph glyph-name="braceright" unicode="}" horiz-adv-x="395" 
d="M56 -130v117h30q29 0 45.5 16t16.5 44v129q0 99 73 149q-73 50 -73 150v128q0 28 -16.5 44t-45.5 16h-30v117h30q84 0 135 -53.5t51 -141.5v-136q0 -29 16.5 -47t44.5 -18h32v-117h-32q-28 0 -44.5 -18t-16.5 -47v-137q0 -88 -51 -141.5t-135 -53.5h-30z" />
    <glyph glyph-name="cent" unicode="&#xa2;" horiz-adv-x="571" 
d="M312 164q41 10 69.5 40.5t38.5 75.5h102q-14 -87 -70.5 -145t-139.5 -68v-193h-83v196q-88 16 -143 86t-55 169t55 169t143 86v192h83v-189q83 -10 139.5 -67.5t70.5 -144.5h-102q-10 44 -38.5 74.5t-69.5 41.5v-323zM130 325q0 -57 26.5 -99t72.5 -58v314
q-46 -16 -72.5 -58t-26.5 -99z" />
    <glyph glyph-name="sterling" unicode="&#xa3;" horiz-adv-x="587" 
d="M81 -14l-50 118q54 42 76 84q23 44 23 85q0 13 -3 27h-96v108h73q-18 57 -18 116q0 53 35 121q35 69 179 79q90 0 146 -48q54 -49 65 -139l-125 -20q-7 51 -31 75q-25 23 -59 23q-37 0 -61 -26q-25 -25 -25 -66q0 -22 7 -53q6 -31 17 -62h144v-108h-122v-20
q0 -41 -13 -71q-12 -30 -58 -87q25 15 65 15q16 0 29 -3q16 -4 37 -9q58 -14 76 -14q34 0 94 26l52 -116q-30 -14 -62 -24q-33 -10 -66 -10q-42 0 -111 21t-102 21q-58 0 -116 -43z" />
    <glyph glyph-name="yen" unicode="&#xa5;" horiz-adv-x="577" 
d="M217 8v125h-164v104h164v54h-164v104h114l-136 291h134l90 -196q17 -39 23 -65q9 35 23 65l91 196h135l-137 -291h115v-104h-165v-54h165v-104h-165v-125h-123z" />
    <glyph glyph-name="copyright" unicode="&#xa9;" horiz-adv-x="811" 
d="M388 654q137 0 234 -97t97 -234t-97 -234t-234 -97t-234 97t-97 234t97 234t234 97zM388 79q101 0 172.5 71.5t71.5 172.5t-71.5 172.5t-172.5 71.5t-172.5 -71.5t-71.5 -172.5t71.5 -172.5t172.5 -71.5zM389 159q-68 0 -112.5 47t-44.5 119t44.5 119t112.5 47
q61 0 103.5 -38t51.5 -99h-64q-8 35 -32.5 55.5t-58.5 20.5q-41 0 -67.5 -29.5t-26.5 -75.5q0 -45 27 -75t67 -30q34 0 58.5 21t32.5 56h64q-9 -62 -51.5 -100t-103.5 -38z" />
    <glyph glyph-name="registered" unicode="&#xae;" horiz-adv-x="732" 
d="M388 654q137 0 234 -97t97 -234t-97 -234t-234 -97t-234 97t-97 234t97 234t234 97zM388 79q101 0 172.5 71.5t71.5 172.5t-71.5 172.5t-172.5 71.5t-172.5 -71.5t-71.5 -172.5t71.5 -172.5t172.5 -71.5zM263 187v276h188q35 0 56.5 -22.5t21.5 -60.5q0 -33 -18.5 -54.5
t-49.5 -24.5q1 -2 4.5 -6.5t4.5 -6.5l59 -101h-59l-66 113h-89v-113h-52zM315 350h136q26 0 26 28v8q0 27 -26 27h-136v-63z" />
    <glyph glyph-name="degree" unicode="&#xb0;" horiz-adv-x="539" 
d="M269 247q-93 0 -150 57.5t-57 150.5t57 150.5t150 57.5q94 0 151 -57t57 -151q0 -92 -58 -150t-150 -58zM269 364q37 0 60.5 25t23.5 66t-23 66t-61 25t-61 -25t-23 -66t23 -66t61 -25z" />
    <glyph glyph-name="multiply" unicode="&#xd7;" horiz-adv-x="655" 
d="M163 65l-82 88l163 172l-163 173l82 87l165 -173l163 173l84 -87l-165 -173l165 -173l-84 -87l-163 173z" />
    <glyph glyph-name="divide" unicode="&#xf7;" horiz-adv-x="679" 
d="M340 442q-32 0 -53 22.5t-21 55.5t21 55.5t53 22.5q31 0 52.5 -22.5t21.5 -55.5t-21.5 -55.5t-52.5 -22.5zM93 267v117h494v-117h-494zM340 52q-32 0 -53 22.5t-21 55.5t21 55.5t53 22.5q31 0 52.5 -22.5t21.5 -55.5t-21.5 -55.5t-52.5 -22.5z" />
    <glyph glyph-name="endash" unicode="&#x2013;" horiz-adv-x="988" 
d="M93 267v117h803v-117h-803z" />
    <glyph glyph-name="emdash" unicode="&#x2014;" horiz-adv-x="1235" 
d="M93 267v117h1050v-117h-1050z" />
    <glyph glyph-name="quoteleft" unicode="&#x2018;" horiz-adv-x="284" 
d="M143 364q-37 0 -59 27t-22 71q0 36 11 70.5t26.5 57t31 40t26.5 25.5l11 8l43 -43q-29 -32 -46 -90q26 -8 41.5 -29t15.5 -52q0 -38 -22 -61.5t-57 -23.5z" />
    <glyph glyph-name="quoteright" unicode="&#x2019;" horiz-adv-x="284" 
d="M116 364l-43 43q29 32 46 90q-27 8 -42 29.5t-15 52.5q0 38 22 61t59 23q35 0 57 -27t22 -70q0 -36 -11 -70.5t-26.5 -57t-31 -40.5t-26.5 -26z" />
    <glyph glyph-name="quotesinglbase" unicode="&#x201a;" horiz-adv-x="284" 
d="M116 -20l-43 43q29 33 46 90q-57 18 -57 82q0 38 22 61.5t59 23.5q35 0 57 -27t22 -71q0 -36 -11 -70.5t-26.5 -57t-31 -40.5t-26.5 -26z" />
    <glyph glyph-name="quotedblleft" unicode="&#x201c;" horiz-adv-x="531" 
d="M143 364q-37 0 -59 27t-22 71q0 36 11 70.5t26.5 57t31 40t26.5 25.5l11 8l43 -43q-29 -32 -46 -90q26 -8 41.5 -29t15.5 -52q0 -38 -22 -61.5t-57 -23.5zM390 364q-37 0 -59 27t-22 71q0 36 11 70.5t26.5 57t31 40t26.5 25.5l11 8l43 -43q-29 -32 -46 -90
q26 -8 41.5 -29t15.5 -52q0 -38 -22 -61.5t-57 -23.5z" />
    <glyph glyph-name="quotedblright" unicode="&#x201d;" horiz-adv-x="531" 
d="M116 364l-43 43q29 32 46 90q-27 8 -42 29.5t-15 52.5q0 38 22 61t59 23q35 0 57 -27t22 -70q0 -36 -11 -70.5t-26.5 -57t-31 -40.5t-26.5 -26zM363 364l-43 43q29 32 46 90q-27 8 -42 29.5t-15 52.5q0 38 22 61t59 23q35 0 57 -27t22 -70q0 -36 -11 -70.5t-26.5 -57
t-31 -40.5t-26.5 -26z" />
    <glyph glyph-name="quotedblbase" unicode="&#x201e;" horiz-adv-x="531" 
d="M116 -20l-43 43q29 33 46 90q-57 18 -57 82q0 38 22 61.5t59 23.5q35 0 57 -27.5t22 -70.5q0 -36 -11 -70.5t-26.5 -57t-31 -40.5t-26.5 -26zM363 -20l-43 43q29 33 46 90q-57 18 -57 82q0 38 22 61.5t59 23.5q35 0 57 -27.5t22 -70.5q0 -36 -11 -70.5t-26.5 -57
t-31 -40.5t-26.5 -26z" />
    <glyph glyph-name="bullet" unicode="&#x2022;" horiz-adv-x="371" 
d="M185 195q-55 0 -89 35.5t-34 94.5t34 94.5t89 35.5q56 0 90 -36t34 -94t-34 -94t-90 -36z" />
    <glyph glyph-name="Euro" unicode="&#x20ac;" horiz-adv-x="715" 
d="M414 -13q-125 0 -212 77.5t-106 202.5h-65v117h65q19 124 106 201.5t212 77.5q78 0 143.5 -31.5t108.5 -89.5l-98 -84q-56 82 -154 82q-69 0 -119 -43t-66 -113h296v-117h-296q16 -70 66 -113t119 -43q99 0 154 81l98 -84q-43 -57 -108.5 -89t-143.5 -32z" />
    <glyph glyph-name="uni2120" unicode="&#x2120;" horiz-adv-x="756" 
d="M186 300q-70 0 -112.5 29.5t-42.5 78.5h64q0 -21 25 -34t66 -13q92 0 92 50q0 39 -94 39q-77 0 -112 23t-35 74q0 107 149 107q68 0 109 -29.5t41 -78.5h-65q0 22 -23 34.5t-62 12.5q-83 0 -83 -46q0 -19 20 -27.5t66 -8.5q80 0 116.5 -24t36.5 -76q0 -111 -156 -111z
M378 306v347h104l60 -240l59 240h106v-347h-64v276l-71 -276h-61l-70 276v-276h-63z" />
    <glyph glyph-name="trademark" unicode="&#x2122;" horiz-adv-x="716" 
d="M132 306v286h-101v61h268v-61h-99v-286h-68zM338 306v347h104l61 -240l59 240h105v-347h-63v276l-72 -276h-60l-70 276v-276h-64z" />
    <glyph glyph-name="minus" unicode="&#x2212;" horiz-adv-x="679" 
d="M93 267v117h494v-117h-494z" />
    <glyph glyph-name="_FSHallmark" horiz-adv-x="1137" 
d="M53 732v103h1035v-103h-1035zM865 242q-49 0 -84 10q-38 9 -72 29q-30 18 -53 49q-19 27 -19 69l119 -1q0 -4 5 -16q3 -17 18 -27q13 -11 31 -18q21 -11 59 -11q43 0 66 13q25 10 25 26q0 32 -99 50q-95 20 -150 47q-64 25 -64 87q0 48 42 78q40 28 90 41q35 9 86 9
q58 0 118 -19q54 -20 82 -69q13 -26 13 -52h-124q0 12 -9 23q-3 4 -23 19l-29 11q-18 3 -29 3q-33 0 -60 -13q-26 -13 -26 -30q0 -32 22 -43q21 -11 56 -18l83 -17q9 -3 36 -7q18 -2 32 -7q4 -2 13.5 -6t12.5 -5q22 -11 39 -28q10 -19 15 -47q2 -28 -13 -52q-32 -44 -91 -61
q-63 -17 -118 -17zM53 242v434h435v-99h-299v-97h248v-96h-248v-142h-136zM540 244q-25 0 -43 16q-20 14 -20 35t18 38q16 13 45 13t48 -16q20 -14 20 -35t-20 -36q-22 -15 -48 -15zM49 85v104h1038v-104h-1038z" />
    <glyph glyph-name="_Fontastica" horiz-adv-x="968" 
d="M50 156q-1 1 -1 7v705h627v-107h-482v-292h485v-109h-485v-204h-144zM284 157v108h486v291h-486v110h486v202h144v-711h-630zM785 43q-11 0 -27 6q-9 12 -12 23q-1 12 10 23q14 12 29 12q17 0 29 -12l-6 -8l-9 5q-1 2 -11 2h-3q-11 -3 -15 -7q-7 -3 -7 -10q0 -10 7 -16
q4 -5 15 -5q12 0 23 5l6 -5q-9 -13 -29 -13zM50 44v61h54v-11h-35v-16h34v-10h-34v-24h-19zM168 40q-9 0 -15 4q-23 8 -23 26q0 15 11 25q9 10 28 10q26 0 36 -17q12 -9 4 -27q-8 -17 -31 -18zM299 43q-1 0 -11 6q0 1 -1.5 3l-3 4t-2.5 3l-6 7l-16 16v-38h-16v61h14
q5 -1 7 -7q3 -3 9.5 -9t7.5 -7l6 -9t7 -9v41h15v-61h-5q-1 -1 -5 -1zM363 44v50h-22v11h61v-11h-24v-50h-15zM555 43q-25 0 -35 9q2 3 2 4l1 1q0 3 2 4l22 -5h10q3 2 4 3t1 0q0 10 -16 11q-2 0 -4 2q-1 1 -6 1q-11 1 -11 14q-3 10 10 16q10 2 16 2q19 0 29 -5l-5 -12
q-3 2 -6 2q-2 0 -4 1q-1 1 -4 1q-1 0 -4 2h-10q-5 0 -5 -4q-1 -3 5 -8q5 0 18 -5q15 -4 15 -15q2 -13 -13 -18q-2 -1 -12 -1zM627 44v50h-22v11h62v-11h-22v-50h-18zM696 44v61h19v-61h-19zM839 44q21 37 29 61h20l15 -28q1 -4 4 -11l3 -6q1 -1 4 -7.5t5 -8.5h-16l-7 13h-35
l-6 -13h-16zM417 44l30 59h17q7 -14 8 -15t9 -14q0 -2 2 -6.5t3 -7.5l7 -16h-16q-1 2 -1 5q0 1 -1.5 3t-2.5 5h-33q-2 -1 -2 -8q-1 -1 -1 -2l-4 -3h-15zM169 55q5 0 7 1q14 2 14 17v1q0 10 -5 14q-6 6 -17 6q-3 -2 -5 -2q-4 -1 -14 -9q-8 -8 -1 -15q4 -13 21 -13zM442 68h24
q0 4 -2 5q-1 1 -2 3l-1 3q-3 2 -3 6q-1 1 -1 2q-1 2 -1 3zM865 68h24q-1 1 -1 5q-2 1 -3 3l-1 3q0 4 -3 6l-1 2q-1 2 -2 3z" />
    </font>
</defs>
</svg>
