<?xml version="1.0" standalone="no"?>
<!DOCTYPE svg PUBLIC "-//W3C//DTD SVG 1.1//EN" "http://www.w3.org/Graphics/SVG/1.1/DTD/svg11.dtd" >
<svg xmlns="http://www.w3.org/2000/svg" xmlns:xlink="http://www.w3.org/1999/xlink" version="1.1">
<metadata>
Created by FontForge 20170731 at Tue Jul  9 21:04:39 2019
 By Aleksey,,,
Copyright (c) 2019 by Fontastica. All rights reserved.
</metadata>
<defs>
<font id="Nord-BlackItalic" horiz-adv-x="845" >
  <font-face 
    font-family="Nord Black"
    font-weight="900"
    font-style="italic"
    font-stretch="normal"
    units-per-em="1000"
    panose-1="0 0 10 0 0 0 0 0 0 0"
    ascent="800"
    descent="-200"
    x-height="664"
    cap-height="664"
    bbox="22 -148 1237 868"
    underline-thickness="50"
    underline-position="-200"
    unicode-range="U+0020-2212"
  />
<missing-glyph horiz-adv-x="411" 
 />
    <glyph glyph-name=".notdef" horiz-adv-x="411" 
 />
    <glyph glyph-name=".null" horiz-adv-x="0" 
 />
    <glyph glyph-name="nonmarkingreturn" horiz-adv-x="333" 
 />
    <glyph glyph-name="space" unicode=" " horiz-adv-x="309" 
 />
    <glyph glyph-name="exclam" unicode="!" horiz-adv-x="375" 
d="M203 664l-23 -148q-25 -151 -19 -291v-10h122l4 10q45 129 72 291l23 148h-179zM219 197q-53 0 -85 -31.5t-38 -72.5q-7 -41 15 -73t75 -32t85 32t39 73q6 41 -16.5 72.5t-74.5 31.5z" />
    <glyph glyph-name="quotedbl" unicode="&#x22;" horiz-adv-x="519" 
d="M186 664l-18 -117q-16 -102 1 -170l1 -9h116l5 9q40 73 55 170l18 117h-178zM366 664l-18 -117q-16 -99 2 -170l1 -9h114l6 9q41 75 56 170l18 117h-179z" />
    <glyph glyph-name="numbersign" unicode="#" horiz-adv-x="844" 
d="M134 0h170l47 135h82l-48 -135h171l47 135h121l24 148h-92l34 98h122l24 148h-93l47 135h-170l-47 -135h-82l47 135h-170l-46 -135h-121l-24 -148h91l-34 -98h-121l-24 -148h92zM404 283l34 98h82l-34 -98h-82z" />
    <glyph glyph-name="dollar" unicode="$" horiz-adv-x="597" 
d="M211 -72h122l15 98q110 10 178 60.5t83 139.5q14 91 -38.5 134.5t-161.5 49.5l12 76q51 -12 47 -45l-4 -25h165l4 25q12 80 -40.5 132t-147.5 64l15 94h-122l-15 -94q-102 -12 -164.5 -61t-75.5 -132q-13 -84 34 -127t147 -52l-14 -87q-51 14 -47 44l4 25h-165l-4 -25
q-12 -79 40.5 -130t147.5 -64zM299 485l-11 -70q-18 4 -25 7q-15 8 -14 22q6 32 50 41zM372 175l13 86q28 -4 39 -8q23 -9 20 -27q-7 -39 -72 -51z" />
    <glyph glyph-name="percent" unicode="%" horiz-adv-x="987" 
d="M388 738q-100 0 -164.5 -64.5t-77.5 -145.5q-14 -82 30 -145.5t146 -63.5q103 0 165.5 63t76.5 146q13 82 -31 146t-145 64zM198 124l95 -114l602 530l-95 114zM363 584q22 0 30.5 -15.5t4.5 -40.5q-9 -54 -52 -54q-42 0 -33 54q3 24 16 40t34 16zM770 345
q-100 0 -165 -64.5t-78 -145.5q-6 -38 1 -74t26 -66.5t57.5 -49.5t91.5 -19q103 0 166.5 63t76.5 146q14 81 -30.5 145.5t-145.5 64.5zM745 191q43 0 34 -56q-3 -24 -16 -39t-35 -15q-41 0 -34 54q4 24 17 40t34 16z" />
    <glyph glyph-name="ampersand" unicode="&#x26;" horiz-adv-x="723" 
d="M584 -28l125 134l-12 6q-35 19 -78 60q25 33 38 61q5 11 15 34t16 35l5 11l-157 38l-5 -13l-13 -31l-28 50q109 68 123 154q12 71 -35 118t-135 47t-150 -44t-73 -115q-9 -60 31 -128q-138 -74 -159 -197q-14 -88 43 -146.5t167 -58.5q105 0 186 55q34 -35 85 -63z
M424 543q33 0 28 -31q-2 -12 -18 -25q-1 -1 -19 -16l-14 21q-11 20 -9 31q3 20 32 20zM325 271l69 -111q-38 -25 -74 -25q-29 0 -42 17t-8 45q7 41 55 74z" />
    <glyph glyph-name="quotesingle" unicode="'" horiz-adv-x="339" 
d="M186 664l-18 -117q-16 -102 1 -170l1 -9h116l5 9q40 73 55 170l18 117h-178z" />
    <glyph glyph-name="parenleft" unicode="(" horiz-adv-x="392" 
d="M283 730q-134 -175 -168 -398q-36 -223 42 -398q19 -44 41 -72l9 -10l145 90l-6 9q-44 71 -57 183.5t4 197.5q15 97 61 203.5t113 177.5l8 9l-116 90l-12 -10q-31 -28 -64 -72z" />
    <glyph glyph-name="parenright" unicode=")" horiz-adv-x="392" 
d="M22 -58l117 -90l11 10q33 29 64 72q133 176 169 398q34 222 -43 398q-14 36 -41 72l-8 10l-146 -90l6 -9q43 -70 55.5 -183t-3.5 -198q-16 -97 -61.5 -203.5t-111.5 -177.5z" />
    <glyph glyph-name="asterisk" unicode="*" horiz-adv-x="553" 
d="M439 578l13 86h-143l-13 -85q-12 8 -16 10q-7 5 -20 13t-19 12l-12 8l-87 -120l9 -6q7 -4 20 -13.5t18 -13.5q3 -1 23 -14q-6 -2 -14.5 -6.5t-12.5 -6.5q-6 -3 -22.5 -12.5t-24.5 -14.5l-11 -6l48 -120l16 9q8 4 24 11.5t23 11.5q6 4 18 10l-13 -85h143l14 86
q7 -5 16 -10q6 -4 12.5 -8t14.5 -8.5t12 -7.5l14 -8l88 120l-9 5q-8 5 -21.5 14.5t-18.5 12.5l-23 13q9 5 27 14q6 3 22.5 12.5t26.5 14.5l11 6l-50 121l-17 -9q-15 -9 -47 -25q-3 -2 -9.5 -5.5t-9.5 -5.5z" />
    <glyph glyph-name="plus" unicode="+" horiz-adv-x="724" 
d="M313 252l-30 -191h179l30 191h180l25 161h-180l30 189h-179l-30 -189h-180l-25 -161h180z" />
    <glyph glyph-name="comma" unicode="," horiz-adv-x="375" 
d="M71 -70l65 -74l12 7q66 38 108 96.5t52 121.5q7 46 -11.5 81t-77.5 35q-53 0 -85 -31.5t-38 -72.5q-10 -61 34 -90q-21 -39 -51 -66z" />
    <glyph glyph-name="hyphen" unicode="-" horiz-adv-x="665" 
d="M158 413l-25 -161h479l25 161h-479z" />
    <glyph glyph-name="period" unicode="." horiz-adv-x="375" 
d="M219 197q-53 0 -85 -31.5t-38 -72.5q-7 -41 15 -73t75 -32t85 32t39 73q6 41 -16.5 72.5t-74.5 31.5z" />
    <glyph glyph-name="slash" unicode="/" horiz-adv-x="630" 
d="M46 -22l136 -75l508 783l-137 75z" />
    <glyph glyph-name="zero" unicode="0" horiz-adv-x="784" 
d="M499 676q-72 0 -131 -21t-98.5 -54.5t-68.5 -80t-44 -92.5t-23 -96q-5 -48 -7 -96t14 -93t43.5 -79.5t80.5 -55t125 -20.5q89 0 158 31t110.5 83.5t65 109t33.5 120.5q5 48 6.5 96t-15 93t-44 79.5t-80.5 55t-125 20.5zM473 510q125 0 98 -178q-29 -177 -154 -177
q-128 0 -99 177q27 178 155 178z" />
    <glyph glyph-name="one" unicode="1" horiz-adv-x="364" 
d="M198 664l-105 -664h179l105 664h-179z" />
    <glyph glyph-name="two" unicode="2" horiz-adv-x="723" 
d="M92 111l-18 -111h563l25 160h-356q10 14 42 34q28 17 95 45q57 22 91 38.5t73.5 43t61.5 61t29 79.5q16 98 -49 156.5t-187 58.5q-128 0 -208.5 -62t-96.5 -165l-4 -25h186l4 25q4 29 29.5 45t63.5 16q40 0 60.5 -11.5t16.5 -37.5q-3 -20 -38 -40q-21 -10 -38 -17
q-28 -10 -42 -16q-276 -107 -303 -277z" />
    <glyph glyph-name="three" unicode="3" horiz-adv-x="723" 
d="M117 228l-4 -25q-16 -105 50 -160t197 -55q130 0 214.5 55.5t100.5 159.5q14 86 -43 135q54 48 66 123q16 103 -46 159t-190 56q-127 0 -207 -56t-96 -159l-4 -25h187l1 13q3 34 25 47.5t68 13.5q40 0 61 -11.5t17 -37.5q-8 -48 -87 -48h-120l-25 -161h120q44 0 68 -11
t20 -38q-8 -48 -103 -48q-45 0 -69.5 11t-20.5 37l4 25h-184z" />
    <glyph glyph-name="four" unicode="4" horiz-adv-x="723" 
d="M373 0h179l19 123h109l26 160h-109l60 381h-152l-428 -410l-21 -131h336zM323 283l112 108l-17 -108h-95z" />
    <glyph glyph-name="five" unicode="5" horiz-adv-x="723" 
d="M117 228l-4 -25q-16 -105 50 -160t197 -55q134 0 217 59t100 166q16 105 -50 161.5t-197 56.5h-90l12 72h330l25 161h-509l-62 -394h269q46 0 69 -13t18 -44q-9 -58 -105 -58q-44 0 -69 11t-21 37l4 25h-184z" />
    <glyph glyph-name="six" unicode="6" horiz-adv-x="722" 
d="M475 676q-70 0 -128.5 -21.5t-97 -55.5t-67.5 -80.5t-44.5 -92t-22.5 -94.5q-5 -48 -7 -96t14 -93t43.5 -79.5t80.5 -55t125 -20.5q131 0 219.5 61.5t104.5 166.5q16 99 -50 160t-190 61q-67 0 -136 -25q37 98 130 98q35 0 58 -13t19 -36l-4 -25h184l4 25q15 97 -50 156
t-185 59zM408 277q111 0 102 -61q-4 -30 -35.5 -45.5t-75.5 -15.5q-52 0 -75 21.5t-29 65.5q61 35 113 35z" />
    <glyph glyph-name="seven" unicode="7" horiz-adv-x="682" 
d="M476 503l-313 -503h194l334 534q1 3 2 9q0 2 2 12q1 6 3 19.5t3 17.5q2 11 4 26t3.5 23.5t1.5 10.5l2 12h-539l-25 -161h328z" />
    <glyph glyph-name="eight" unicode="8" horiz-adv-x="723" 
d="M207 338q-80 -53 -94 -135q-16 -105 50 -160t197 -55q130 0 214.5 55.5t100.5 159.5q14 82 -51 135q63 51 74 123q16 102 -43 158.5t-186 56.5q-126 0 -204 -56.5t-94 -158.5q-11 -73 36 -123zM443 510q38 0 56.5 -11.5t14.5 -37.5q-8 -48 -87 -48q-39 0 -56.5 11
t-13.5 37q8 49 86 49zM402 252q44 0 68 -11t20 -38q-8 -48 -103 -48q-45 0 -69.5 11t-20.5 37q8 49 105 49z" />
    <glyph glyph-name="nine" unicode="9" horiz-adv-x="722" 
d="M98 228l-4 -25q-15 -97 61 -156t198 -59q70 0 128.5 21.5t97 55.5t67.5 81t44.5 92t23.5 94q5 48 6.5 96t-14.5 93t-43.5 79.5t-80.5 55t-125 20.5q-130 0 -219 -61t-105 -166q-16 -100 50 -160.5t190 -60.5q69 0 135 24q-38 -97 -128 -97q-45 0 -76 16.5t-23 43.5l4 13
h-187zM431 510q51 0 74.5 -22t27.5 -66q-59 -34 -113 -34q-51 0 -79 14t-23 47q5 30 37 45.5t76 15.5z" />
    <glyph glyph-name="colon" unicode=":" horiz-adv-x="375" 
d="M277 560q-53 0 -85 -32t-39 -73t15 -73t75 -32t85 32t39 73t-15 73t-75 32zM219 197q-53 0 -85 -31.5t-38 -72.5q-7 -41 15 -73t75 -32t85 32t39 73q6 41 -16.5 72.5t-74.5 31.5z" />
    <glyph glyph-name="semicolon" unicode=";" horiz-adv-x="375" 
d="M277 560q-53 0 -85 -32t-39 -73t15 -73t75 -32t85 32t39 73t-15 73t-75 32zM71 -70l65 -74l12 7q66 38 108 96.5t52 121.5q7 46 -11.5 81t-77.5 35q-53 0 -85 -31.5t-38 -72.5q-10 -61 34 -90q-21 -39 -51 -66z" />
    <glyph glyph-name="equal" unicode="=" horiz-adv-x="724" 
d="M178 535l-26 -160h539l26 160h-539zM139 290l-26 -161h539l26 161h-539z" />
    <glyph glyph-name="question" unicode="?" horiz-adv-x="758" 
d="M355 418l-13 -86q-6 -37 12 -108l2 -9h114l4 8q10 18 20 37q120 9 190 55.5t86 143.5q9 58 -9 101t-59 68t-94.5 36.5t-121.5 11.5q-132 0 -233.5 -58t-118.5 -163l-4 -25h178l4 25q6 31 55 47q42 14 94 14q58 0 91 -11q43 -14 39 -46q-4 -24 -52 -35q-30 -6 -87 -6h-97z
M410 197q-53 0 -85 -32t-38 -72q-7 -41 15 -73t75 -32t85.5 32t39.5 73q6 41 -16.5 72.5t-75.5 31.5z" />
    <glyph glyph-name="at" unicode="@" horiz-adv-x="1047" 
d="M656 526q-32 17 -75 17q-50 0 -93.5 -20.5t-72.5 -52.5t-48 -68.5t-24 -70.5q-8 -49 5.5 -96.5t56.5 -83t110 -35.5q35 0 63 11q66 -17 119 -17q144 0 235.5 83.5t109.5 199.5q28 174 -76 290t-319 116q-95 0 -177.5 -27.5t-141.5 -73t-104.5 -106.5t-71.5 -126t-37 -134
q-10 -75 -2.5 -144t42 -128t87 -102.5t133 -68t179.5 -24.5q75 0 156 21t134 62l7 6l-57 132l-17 -12q-69 -49 -200 -49q-156 0 -227 88t-50 219q9 57 32.5 109.5t61.5 97.5t97.5 72.5t130.5 27.5q157 0 214 -107h-179zM839 528q28 -60 16 -135q-11 -67 -54 -103zM588 385
q21 0 33 -17t8 -39q-3 -21 -21 -38t-38 -17t-31.5 17.5t-8.5 39.5q4 20 21 37t37 17z" />
    <glyph glyph-name="A" unicode="A" horiz-adv-x="829" 
d="M37 0h190l86 157h250l37 -157h192l-161 664h-222zM400 317l87 154l40 -154h-127z" />
    <glyph glyph-name="B" unicode="B" horiz-adv-x="820" 
d="M93 0h449q104 0 167.5 63t76.5 146q14 84 -45 134q49 48 59 112q8 37 0 74t-26 67t-57 49t-93 19h-426zM337 413l15 90h247q29 0 24 -36l-3 -18q-5 -36 -36 -36h-247zM297 160l15 92h270q32 0 25 -36l-3 -19q-2 -17 -12 -27t-25 -10h-270z" />
    <glyph glyph-name="C" unicode="C" horiz-adv-x="807" 
d="M510 676q-84 0 -156 -31.5t-120.5 -82t-79 -110t-39.5 -120.5q-10 -61 2 -120.5t44 -110.5t94 -82t146 -31q77 0 144.5 26t115 70t80 96t48.5 109l4 13h-186l-4 -10q-20 -57 -66 -97t-109 -40q-75 0 -107 54t-21 123t60 123.5t124 54.5q63 0 96.5 -40t35.5 -97v-10h186
l1 13q1 57 -15 109t-49.5 95.5t-92.5 69.5t-136 26z" />
    <glyph glyph-name="D" unicode="D" horiz-adv-x="826" 
d="M198 664l-105 -664h330q82 0 153.5 29.5t120 77.5t79.5 106t41 119t-2.5 119t-46 106t-96 77.5t-144.5 29.5h-330zM448 160h-151l55 343h151q74 0 106.5 -51.5t22.5 -119.5q-11 -68 -60.5 -120t-123.5 -52z" />
    <glyph glyph-name="E" unicode="E" horiz-adv-x="814" 
d="M198 664l-105 -664h647l25 160h-468l15 92h348l25 161h-348l15 90h468l25 161h-647z" />
    <glyph glyph-name="F" unicode="F" horiz-adv-x="790" 
d="M198 664l-105 -664h179l40 252h336l25 161h-336l15 90h456l25 161h-635z" />
    <glyph glyph-name="G" unicode="G" horiz-adv-x="807" 
d="M510 676q-84 0 -156 -31.5t-120.5 -82t-79 -110t-39.5 -120.5q-10 -61 2 -120.5t44 -110.5t94 -82t146 -31t157 31t121 82t78.5 110.5t40.5 120.5q4 28 4 64l-1 10h-363l-25 -160h168q-26 -41 -65.5 -66t-87.5 -25q-75 0 -107 54t-21 123t60 123.5t124 54.5
q41 0 72.5 -20t46.5 -53l3 -7l198 3l-4 15q-2 6 -4 18q-23 92 -96 151t-190 59z" />
    <glyph glyph-name="H" unicode="H" 
d="M198 664l-105 -664h179l40 252h301l-40 -252h180l105 664h-180l-40 -251h-301l40 251h-179z" />
    <glyph glyph-name="I" unicode="I" horiz-adv-x="364" 
d="M198 664l-105 -664h179l105 664h-179z" />
    <glyph glyph-name="J" unicode="J" horiz-adv-x="700" 
d="M113 283l-4 -25q-8 -48 1.5 -94.5t35 -86.5t74.5 -64.5t115 -24.5t123 24.5t95.5 64.5t62.5 86.5t32 94.5l64 406h-178l-64 -406q-7 -40 -36 -71.5t-72 -31.5q-42 0 -61.5 31.5t-12.5 71.5l4 25h-179z" />
    <glyph glyph-name="K" unicode="K" 
d="M198 664l-105 -664h179l28 176l109 87l164 -263h218l-238 379l355 285h-251l-321 -259l41 259h-179z" />
    <glyph glyph-name="L" unicode="L" horiz-adv-x="682" 
d="M198 664l-105 -664h539l25 160h-360l80 504h-179z" />
    <glyph glyph-name="M" unicode="M" 
d="M492 420l-140 244h-154l-105 -664h179l55 349l58 -103h154l89 103l-55 -349h180l105 664h-155z" />
    <glyph glyph-name="N" unicode="N" 
d="M198 664l-105 -664h179l59 374l268 -374h154l105 664h-180l-59 -373l-269 373h-152z" />
    <glyph glyph-name="O" unicode="O" horiz-adv-x="807" 
d="M510 676q-84 0 -156 -31.5t-120.5 -82t-79 -110t-39.5 -120.5q-10 -61 2 -120.5t44 -110.5t94 -82t146 -31t156.5 31t121 82t79 110.5t40.5 120.5q9 61 -2.5 120.5t-44 110t-95 82t-146.5 31.5zM484 510q75 0 108 -54.5t22 -123.5t-61 -123t-125 -54t-107 54t-21 123
t60 123.5t124 54.5z" />
    <glyph glyph-name="P" unicode="P" horiz-adv-x="819" 
d="M93 0h179l40 252h283q102 0 165.5 60.5t75.5 142.5q8 37 0 74t-26 67t-57 49t-93 19h-462zM337 413l15 90h283q29 0 24 -36l-3 -18q-5 -36 -36 -36h-283z" />
    <glyph glyph-name="Q" unicode="Q" horiz-adv-x="816" 
d="M644 -44l-62 76q-86 -44 -181 -44q-84 0 -146 31t-94 82t-44 110.5t-2 120.5q9 61 39.5 120.5t79 110t120.5 82t156 31.5t146.5 -31.5t95 -82t44 -110t2.5 -120.5q-16 -100 -77 -181l60 -76zM428 155q22 0 50 7l-79 98l140 118l66 -82q6 18 9 36q11 69 -22 123.5
t-108 54.5t-124 -54.5t-60 -123.5t21 -123t107 -54z" />
    <glyph glyph-name="R" unicode="R" horiz-adv-x="850" 
d="M93 0h179l40 252h157l112 -252h202l-117 260v1l-1 1q74 20 117.5 74.5t53.5 118.5q8 37 0 74t-26 67t-57 49t-93 19h-462zM337 413l15 90h283q29 0 24 -36l-3 -18q-5 -36 -36 -36h-283z" />
    <glyph glyph-name="S" unicode="S" horiz-adv-x="758" 
d="M99 234l-4 -25q-16 -105 67 -163t215 -58q144 0 239.5 55t114.5 170q9 60 -8 101.5t-58.5 63.5t-92.5 31t-120 9q-26 0 -42 1q-31 2 -45 5q-22 5 -31.5 13t-7.5 22q4 31 47 46q36 11 88 11q50 0 86 -15.5t31 -45.5l-4 -25h179l4 25q11 69 -23.5 120.5t-99 76t-148.5 24.5
q-90 0 -160 -21.5t-118.5 -71t-60.5 -124.5q-9 -59 7 -99.5t55 -62t88.5 -30.5t117.5 -9q32 0 48 -1q39 -2 64 -11q28 -11 25 -33q-7 -35 -53 -52q-38 -13 -97 -13q-51 0 -89 14q-44 16 -40 47l4 25h-178z" />
    <glyph glyph-name="T" unicode="T" horiz-adv-x="758" 
d="M369 503l-80 -503h179l80 503h241l25 161h-660l-25 -161h240z" />
    <glyph glyph-name="U" unicode="U" horiz-adv-x="820" 
d="M198 664l-54 -344q-8 -37 -4 -75.5t13 -75.5t31.5 -70t52 -57.5t74 -39t98.5 -14.5q79 0 147 31t113 81t73 106.5t37 113.5l54 344h-179l-54 -344q-10 -63 -54 -114t-110 -51q-67 0 -95 50.5t-18 114.5l54 344h-179z" />
    <glyph glyph-name="V" unicode="V" horiz-adv-x="829" 
d="M448 192l-115 472h-191l162 -664h222l371 664h-190l-4 -8l-184 -331q-3 -5 -26.5 -48.5t-35.5 -66.5z" />
    <glyph glyph-name="W" unicode="W" horiz-adv-x="872" 
d="M154 664l-26 -664h173l186 319l85 -319h173l183 664h-177l-87 -328l-61 205h-161l-122 -205l11 328h-177z" />
    <glyph glyph-name="X" unicode="X" horiz-adv-x="835" 
d="M358 343l-333 -343h218l202 210l137 -210h228l-227 345l315 319h-223l-180 -186l-123 186h-224z" />
    <glyph glyph-name="Y" unicode="Y" horiz-adv-x="772" 
d="M476 0l4 25l26 162q0 2 0.5 6t1.5 10.5t1 10.5q2 12 2 15q1 3 1 6q11 22 45 62q42 46 56 64l239 303h-206l-155 -198q-23 -28 -39 -52q-11 28 -22 53l-95 197h-205l143 -303q1 -3 36 -64q23 -43 25 -62q0 -3 -1 -6q0 -3 -2 -15q-4 -22 -4 -27l-31 -187h180z" />
    <glyph glyph-name="Z" unicode="Z" horiz-adv-x="795" 
d="M95 132l-21 -132h647l25 160h-380l427 372l21 132h-623l-25 -161h355z" />
    <glyph glyph-name="bracketleft" unicode="[" horiz-adv-x="419" 
d="M218 787l-144 -910h269l25 161h-90l93 588h90l26 161h-269z" />
    <glyph glyph-name="backslash" unicode="\" horiz-adv-x="630" 
d="M158 686l259 -783l161 75l-260 783z" />
    <glyph glyph-name="bracketright" unicode="]" horiz-adv-x="419" 
d="M62 38l-24 -161h268l144 910h-269l-26 -161h91l-94 -588h-90z" />
    <glyph glyph-name="underscore" unicode="_" horiz-adv-x="665" 
d="M100 43l-26 -160h479l26 160h-479z" />
    <glyph glyph-name="a" unicode="a" horiz-adv-x="829" 
d="M37 0h190l86 157h250l37 -157h192l-161 664h-222zM400 317l87 154l40 -154h-127z" />
    <glyph glyph-name="b" unicode="b" horiz-adv-x="820" 
d="M93 0h449q104 0 167.5 63t76.5 146q14 84 -45 134q49 48 59 112q8 37 0 74t-26 67t-57 49t-93 19h-426zM337 413l15 90h247q29 0 24 -36l-3 -18q-5 -36 -36 -36h-247zM297 160l15 92h270q32 0 25 -36l-3 -19q-2 -17 -12 -27t-25 -10h-270z" />
    <glyph glyph-name="c" unicode="c" horiz-adv-x="807" 
d="M510 676q-84 0 -156 -31.5t-120.5 -82t-79 -110t-39.5 -120.5q-10 -61 2 -120.5t44 -110.5t94 -82t146 -31q77 0 144.5 26t115 70t80 96t48.5 109l4 13h-186l-4 -10q-20 -57 -66 -97t-109 -40q-75 0 -107 54t-21 123t60 123.5t124 54.5q63 0 96.5 -40t35.5 -97v-10h186
l1 13q1 57 -15 109t-49.5 95.5t-92.5 69.5t-136 26z" />
    <glyph glyph-name="d" unicode="d" horiz-adv-x="826" 
d="M198 664l-105 -664h330q82 0 153.5 29.5t120 77.5t79.5 106t41 119t-2.5 119t-46 106t-96 77.5t-144.5 29.5h-330zM448 160h-151l55 343h151q74 0 106.5 -51.5t22.5 -119.5q-11 -68 -60.5 -120t-123.5 -52z" />
    <glyph glyph-name="e" unicode="e" horiz-adv-x="814" 
d="M198 664l-105 -664h647l25 160h-468l15 92h348l25 161h-348l15 90h468l25 161h-647z" />
    <glyph glyph-name="f" unicode="f" horiz-adv-x="790" 
d="M198 664l-105 -664h179l40 252h336l25 161h-336l15 90h456l25 161h-635z" />
    <glyph glyph-name="g" unicode="g" horiz-adv-x="807" 
d="M510 676q-84 0 -156 -31.5t-120.5 -82t-79 -110t-39.5 -120.5q-10 -61 2 -120.5t44 -110.5t94 -82t146 -31t157 31t121 82t78.5 110.5t40.5 120.5q4 28 4 64l-1 10h-363l-25 -160h168q-26 -41 -65.5 -66t-87.5 -25q-75 0 -107 54t-21 123t60 123.5t124 54.5
q41 0 72.5 -20t46.5 -53l3 -7l198 3l-4 15q-2 6 -4 18q-23 92 -96 151t-190 59z" />
    <glyph glyph-name="h" unicode="h" 
d="M198 664l-105 -664h179l40 252h301l-40 -252h180l105 664h-180l-40 -251h-301l40 251h-179z" />
    <glyph glyph-name="i" unicode="i" horiz-adv-x="364" 
d="M198 664l-105 -664h179l105 664h-179z" />
    <glyph glyph-name="j" unicode="j" horiz-adv-x="712" 
d="M126 283l-4 -25q-8 -48 1.5 -94.5t34.5 -86.5t74.5 -64.5t115.5 -24.5t123.5 25t95.5 64.5t62.5 86.5t31.5 94l64 406h-179l-64 -406q-7 -40 -36 -71.5t-71 -31.5t-62 31.5t-13 71.5l4 25h-178z" />
    <glyph glyph-name="k" unicode="k" 
d="M198 664l-105 -664h179l28 176l109 87l164 -263h218l-238 379l355 285h-251l-321 -259l41 259h-179z" />
    <glyph glyph-name="l" unicode="l" horiz-adv-x="682" 
d="M198 664l-105 -664h539l25 160h-360l80 504h-179z" />
    <glyph glyph-name="m" unicode="m" 
d="M492 420l-140 244h-154l-105 -664h179l55 349l58 -103h154l89 103l-55 -349h180l105 664h-155z" />
    <glyph glyph-name="n" unicode="n" 
d="M198 664l-105 -664h179l59 374l268 -374h154l105 664h-180l-59 -373l-269 373h-152z" />
    <glyph glyph-name="o" unicode="o" horiz-adv-x="807" 
d="M510 676q-84 0 -156 -31.5t-120.5 -82t-79 -110t-39.5 -120.5q-10 -61 2 -120.5t44 -110.5t94 -82t146 -31t156.5 31t121 82t79 110.5t40.5 120.5q9 61 -2.5 120.5t-44 110t-95 82t-146.5 31.5zM484 510q75 0 108 -54.5t22 -123.5t-61 -123t-125 -54t-107 54t-21 123
t60 123.5t124 54.5z" />
    <glyph glyph-name="p" unicode="p" horiz-adv-x="826" 
d="M93 0h179l40 252h283q102 0 165.5 60.5t75.5 142.5q8 37 0 74t-26 67t-57 49t-93 19h-462zM337 413l15 90h283q29 0 24 -36l-3 -18q-5 -36 -36 -36h-283z" />
    <glyph glyph-name="q" unicode="q" horiz-adv-x="816" 
d="M644 -44l-62 76q-86 -44 -181 -44q-84 0 -146 31t-94 82t-44 110.5t-2 120.5q9 61 39.5 120.5t79 110t120.5 82t156 31.5t146.5 -31.5t95 -82t44 -110t2.5 -120.5q-16 -100 -77 -181l60 -76zM428 155q22 0 50 7l-79 98l140 118l66 -82q6 18 9 36q11 69 -22 123.5
t-108 54.5t-124 -54.5t-60 -123.5t21 -123t107 -54z" />
    <glyph glyph-name="r" unicode="r" horiz-adv-x="850" 
d="M93 0h179l40 252h157l112 -252h202l-117 260v1l-1 1q74 20 117.5 74.5t53.5 118.5q8 37 0 74t-26 67t-57 49t-93 19h-462zM337 413l15 90h283q29 0 24 -36l-3 -18q-5 -36 -36 -36h-283z" />
    <glyph glyph-name="s" unicode="s" horiz-adv-x="758" 
d="M99 234l-4 -25q-16 -105 67 -163t215 -58q144 0 239.5 55t114.5 170q9 60 -8 101.5t-58.5 63.5t-92.5 31t-120 9q-26 0 -42 1q-31 2 -45 5q-22 5 -31.5 13t-7.5 22q4 31 47 46q36 11 88 11q50 0 86 -15.5t31 -45.5l-4 -25h179l4 25q11 69 -23.5 120.5t-99 76t-148.5 24.5
q-90 0 -160 -21.5t-118.5 -71t-60.5 -124.5q-9 -59 7 -99.5t55 -62t88.5 -30.5t117.5 -9q32 0 48 -1q39 -2 64 -11q28 -11 25 -33q-7 -35 -53 -52q-38 -13 -97 -13q-51 0 -89 14q-44 16 -40 47l4 25h-178z" />
    <glyph glyph-name="t" unicode="t" horiz-adv-x="758" 
d="M369 503l-80 -503h179l80 503h241l25 161h-660l-25 -161h240z" />
    <glyph glyph-name="u" unicode="u" horiz-adv-x="820" 
d="M198 664l-54 -344q-8 -37 -4 -75.5t13 -75.5t31.5 -70t52 -57.5t74 -39t98.5 -14.5q79 0 147 31t113 81t73 106.5t37 113.5l54 344h-179l-54 -344q-10 -63 -54 -114t-110 -51q-67 0 -95 50.5t-18 114.5l54 344h-179z" />
    <glyph glyph-name="v" unicode="v" horiz-adv-x="829" 
d="M448 192l-115 472h-191l162 -664h222l371 664h-190l-4 -8l-184 -331q-3 -5 -26.5 -48.5t-35.5 -66.5z" />
    <glyph glyph-name="w" unicode="w" horiz-adv-x="872" 
d="M154 664l-26 -664h173l186 319l85 -319h173l183 664h-177l-87 -328l-61 205h-161l-122 -204l11 327h-177z" />
    <glyph glyph-name="x" unicode="x" horiz-adv-x="874" 
d="M379 343l-342 -343h223l209 212l145 -212h223l-236 343l323 321h-224l-187 -191l-131 191h-222z" />
    <glyph glyph-name="y" unicode="y" horiz-adv-x="796" 
d="M488 0l4 25l26 162q0 2 0.5 6t1.5 10.5t1 10.5q2 12 2 15q1 3 1 6q11 22 45 62q42 46 56 64l239 303h-205l-156 -197q-26 -33 -39 -53q-11 28 -22 53l-94 197h-206l143 -303q1 -3 36 -64q23 -43 25 -62q0 -3 -1 -6q0 -3 -2 -15q-4 -22 -4 -27l-31 -187h180z" />
    <glyph glyph-name="z" unicode="z" horiz-adv-x="795" 
d="M95 132l-21 -132h647l25 160h-380l427 372l21 132h-623l-25 -161h355z" />
    <glyph glyph-name="braceleft" unicode="{" horiz-adv-x="446" 
d="M96 413l-25 -161h60q14 0 20.5 -9.5t3.5 -26.5l-20 -130q-14 -82 30 -145.5t147 -63.5h59l25 161h-59q-31 0 -26 31l19 122q14 87 -33 141q64 54 78 142l19 121q5 31 36 31h59l26 161h-59q-103 0 -166.5 -63t-76.5 -146l-21 -129q-5 -36 -36 -36h-60z" />
    <glyph glyph-name="bar" unicode="|" horiz-adv-x="364" 
d="M217 786l-143 -909h179l144 911z" />
    <glyph glyph-name="braceright" unicode="}" horiz-adv-x="445" 
d="M62 38l-25 -161h59q103 0 166 63t77 146l20 130q7 36 36 36h60l25 161h-60q-29 0 -24 36l21 129q13 83 -30.5 146t-146.5 63h-59l-26 -161h59q20 0 25 -16q2 -11 0 -20q0 -8 -2 -22q-1 -8 -6 -33t-7 -39q-18 -110 32 -164q-69 -56 -84 -164q-2 -12 -5 -36.5t-5 -36.5
q-2 -14 -4 -22q-3 -9 -8 -20q-8 -15 -29 -15h-59z" />
    <glyph glyph-name="cent" unicode="&#xa2;" horiz-adv-x="620" 
d="M209 -119h129l29 185q99 18 161.5 84t88.5 151l4 13h-157l-4 -10q-19 -60 -69 -87l37 230q41 -27 41 -86v-11h157l1 14q1 54 -14 99.5t-56.5 84t-104.5 50.5l28 180h-129l-29 -184q-101 -24 -163 -100t-75 -162q-9 -55 2 -106.5t50 -95.5t103 -60zM297 437l-33 -210
q-36 36 -25 105t58 105z" />
    <glyph glyph-name="sterling" unicode="&#xa3;" horiz-adv-x="644" 
d="M308 179q37 46 50 104h119l24 152h-147q-8 47 -3 84q4 25 21.5 43.5t42.5 18.5q30 0 41 -27q7 -20 7 -57v-13l182 28l1 10q4 93 -42.5 152.5t-160.5 59.5q-7 0 -25 -2l-24 -3q-118 -19 -166 -84q-46 -66 -56 -125q-7 -47 -4 -85h-63l-24 -152h97q-13 -78 -118 -147l-8 -5
l44 -161l19 12q71 45 116 45q20 0 47 -5q11 -3 47 -14q66 -20 107 -20q69 0 158 41l10 5l-47 155l-16 -6q-67 -28 -95 -28q-23 0 -63 11q-15 6 -34 9q-22 4 -37 4z" />
    <glyph glyph-name="yen" unicode="&#xa5;" horiz-adv-x="651" 
d="M395 507l-59 191h-194l88 -275h-96l-23 -148l-1 -1l-23 -148h159l-19 -118h178l19 118h161l23 148l1 1l23 148h-97l177 275h-195z" />
    <glyph glyph-name="copyright" unicode="&#xa9;" horiz-adv-x="851" 
d="M408 -8q81 0 149 30.5t111 80t67 108.5t24 119t-24 119.5t-67 108.5t-111 79.5t-149 30.5q-106 0 -188.5 -52.5t-122.5 -128.5t-40 -157q0 -59 24 -118.5t67.5 -109t111.5 -80t148 -30.5zM408 536q92 0 150 -63.5t58 -142.5t-58 -142t-150 -63t-150 63t-58 142t58 142.5
t150 63.5zM592 340h-120q-14 66 -63 66q-29 0 -45.5 -22t-16.5 -52q0 -29 17 -51.5t45 -22.5q49 0 63 66h120l-3 -22q-10 -62 -56.5 -107t-123.5 -45q-87 0 -134.5 56t-47.5 126t47.5 126t134.5 56q77 0 123.5 -45t56.5 -106z" />
    <glyph glyph-name="registered" unicode="&#xae;" horiz-adv-x="772" 
d="M408 -8q81 0 149 30.5t111 80t67 108.5t24 119t-24 119.5t-67 108.5t-111 79.5t-149 30.5q-106 0 -188.5 -52.5t-122.5 -128.5t-40 -157q0 -59 24 -118.5t67.5 -109t111.5 -80t148 -30.5zM274 487q56 49 134 49q92 0 150 -63.5t58 -142.5q0 -65 -41 -122l-53 87
q53 27 53 89q0 40 -27 71.5t-79 31.5h-195zM257 189q-57 62 -57 141t57 141v-282zM465 390v-8v-2h-98v10h98zM547 177q-57 -52 -139 -52q-81 0 -138 52h97v106h39l64 -106h77z" />
    <glyph glyph-name="degree" unicode="&#xb0;" horiz-adv-x="586" 
d="M400 676q-112 0 -182 -66t-84 -155t35.5 -155.5t160.5 -66.5q110 0 181 66.5t85 155.5q14 90 -35 155.5t-161 65.5zM375 516q26 0 36 -17t6 -44q-4 -26 -20.5 -43.5t-41.5 -17.5q-26 0 -36.5 17.5t-6.5 43.5t20.5 43.5t42.5 17.5z" />
    <glyph glyph-name="multiply" unicode="&#xd7;" horiz-adv-x="718" 
d="M108 170l98 -123l186 164l132 -164l141 121l-135 164l186 163l-101 121l-184 -163l-134 164l-138 -122l133 -163z" />
    <glyph glyph-name="divide" unicode="&#xf7;" horiz-adv-x="724" 
d="M459 615q-48 0 -79 -31t-37 -68t15.5 -67.5t69.5 -30.5t80 30.5t38 67.5t-16.5 68t-70.5 31zM133 252h539l25 161h-539zM401 246q-48 0 -79.5 -30.5t-37.5 -67.5q-5 -37 16.5 -68t69.5 -31t80 31t37 68q6 36 -16 67t-70 31z" />
    <glyph glyph-name="endash" unicode="&#x2013;" horiz-adv-x="1024" 
d="M158 413l-25 -161h839l25 161h-839z" />
    <glyph glyph-name="emdash" unicode="&#x2014;" horiz-adv-x="1264" 
d="M158 413l-25 -161h1079l25 161h-1079z" />
    <glyph glyph-name="quoteleft" unicode="&#x2018;" horiz-adv-x="338" 
d="M294 678q-66 -38 -107.5 -96t-51.5 -121q-7 -44 13 -80.5t76 -36.5q53 0 85 32.5t38 72.5q10 62 -35 90q20 37 51 65l9 7l-65 74z" />
    <glyph glyph-name="quoteright" unicode="&#x2019;" horiz-adv-x="338" 
d="M129 409l64 -74l12 7q66 38 108 96.5t52 121.5q7 42 -13 79t-75 37q-53 0 -85.5 -31.5t-38.5 -72.5q-10 -61 35 -91q-23 -40 -51 -65z" />
    <glyph glyph-name="quotesinglbase" unicode="&#x201a;" horiz-adv-x="338" 
d="M71 46l65 -74l12 7q65 38 107 96.5t52 121.5q4 17 1 37t-10.5 38t-28 30t-49.5 12q-53 0 -85.5 -32t-39.5 -73q-10 -62 36 -90q-25 -42 -52 -66z" />
    <glyph glyph-name="quotedblleft" unicode="&#x201c;" horiz-adv-x="578" 
d="M294 678q-66 -38 -107.5 -96t-51.5 -121q-7 -44 13 -80.5t76 -36.5q53 0 85 32.5t38 72.5q10 62 -35 90q20 37 51 65l9 7l-65 74zM534 678q-66 -38 -107.5 -96t-51.5 -121q-7 -44 13 -80.5t76 -36.5q53 0 85 32.5t38 72.5q10 62 -35 90q20 37 51 65l9 7l-65 74z" />
    <glyph glyph-name="quotedblright" unicode="&#x201d;" horiz-adv-x="578" 
d="M129 409l64 -74l12 7q66 38 108 96.5t52 121.5q7 42 -13 79t-75 37q-53 0 -85.5 -31.5t-38.5 -72.5q-10 -61 35 -91q-23 -40 -51 -65zM369 409l64 -74l12 7q66 38 108 96.5t52 121.5q7 42 -13 79t-75 37q-53 0 -85.5 -31.5t-38.5 -72.5q-10 -61 35 -91q-23 -40 -51 -65z
" />
    <glyph glyph-name="quotedblbase" unicode="&#x201e;" horiz-adv-x="578" 
d="M71 46l65 -74l12 7q65 38 107 96.5t52 121.5q4 26 -0.5 50.5t-26.5 45.5t-60 21q-53 0 -85.5 -32t-39.5 -73q-10 -62 36 -90q-25 -42 -52 -66zM311 46l65 -74l12 7q65 38 107 96.5t52 121.5q4 26 -0.5 50.5t-26.5 45.5t-60 21q-53 0 -85.5 -32t-39.5 -73q-10 -62 36 -90
q-25 -42 -52 -66z" />
    <glyph glyph-name="bullet" unicode="&#x2022;" horiz-adv-x="423" 
d="M287 480q-74 0 -118.5 -45t-53.5 -103t21 -103t104 -45q73 0 119 45t55 103t-22.5 103t-104.5 45z" />
    <glyph glyph-name="Euro" unicode="&#x20ac;" horiz-adv-x="764" 
d="M71 252h67q7 -111 82 -187.5t211 -76.5q176 0 298 135l7 7l-121 117l-12 -15q-63 -77 -145 -77q-51 0 -84 27t-43 70h279l25 161h-279q25 43 66 70t92 27q82 0 120 -78l8 -15l157 116l-3 8q-80 135 -256 135q-135 0 -234.5 -76.5t-142.5 -186.5h-67z" />
    <glyph glyph-name="uni2120" unicode="&#x2120;" horiz-adv-x="796" 
d="M31 435v-25q0 -60 53 -93.5t127 -33.5q112 0 157 56v-50h120v58l15 -58h107l16 61v-61h121v378h-156l-34 -134l-35 134h-154v-66q-21 32 -63 49.5t-94 17.5q-78 0 -126 -31t-48 -95q0 -83 84 -107h-90zM264 529q-3 1 -8 1t-7 1q-6 0 -19.5 0.5t-20.5 0.5q-24 2 -36 4
q-2 0 -8 2q-1 0 -3 1l-2 1v2q0 10 14 14q13 4 37 4q23 0 38 -5t15 -14v-12zM368 516v-30q-16 20 -45 30h45zM152 429q2 -1 7 -1t8 -1q14 -1 41 -2t39 -2q24 -3 24 -10q0 -12 -17 -17q-16 -5 -43 -5q-24 0 -40 5q-19 6 -19 14v19z" />
    <glyph glyph-name="trademark" unicode="&#x2122;" horiz-adv-x="757" 
d="M129 559v-270h125v270h75v-270h121v58l15 -58h106l17 64v-64h120v378h-155l-34 -135l-36 135h-452v-108h98z" />
    <glyph glyph-name="minus" unicode="&#x2212;" horiz-adv-x="724" 
d="M158 413l-25 -161h539l25 161h-539z" />
    <glyph glyph-name="_FSHallmark" horiz-adv-x="1137" 
d="M53 732v103h1035v-103h-1035zM865 242q-49 0 -84 10q-38 9 -72 29q-30 18 -53 49q-19 27 -19 69l119 -1q0 -4 5 -16q3 -17 18 -27q13 -11 31 -18q21 -11 59 -11q43 0 66 13q25 10 25 26q0 32 -99 50q-95 20 -150 47q-64 25 -64 87q0 48 42 78q40 28 90 41q35 9 86 9
q58 0 118 -19q54 -20 82 -69q13 -26 13 -52h-124q0 12 -9 23q-3 4 -23 19l-29 11q-18 3 -29 3q-33 0 -60 -13q-26 -13 -26 -30q0 -32 22 -43q21 -11 56 -18l83 -17q9 -3 36 -7q18 -2 32 -7q4 -2 13.5 -6t12.5 -5q22 -11 39 -28q10 -19 15 -47q2 -28 -13 -52q-32 -44 -91 -61
q-63 -17 -118 -17zM53 242v434h435v-99h-299v-97h248v-96h-248v-142h-136zM540 244q-25 0 -43 16q-20 14 -20 35t18 38q16 13 45 13t48 -16q20 -14 20 -35t-20 -36q-22 -15 -48 -15zM49 85v104h1038v-104h-1038z" />
    <glyph glyph-name="_Fontastica" horiz-adv-x="968" 
d="M50 156q-1 1 -1 7v705h627v-107h-482v-292h485v-109h-485v-204h-144zM284 157v108h486v291h-486v110h486v202h144v-711h-630zM785 43q-11 0 -27 6q-9 12 -12 23q-1 12 10 23q14 12 29 12q17 0 29 -12l-6 -8l-9 5q-1 2 -11 2h-3q-11 -3 -15 -7q-7 -3 -7 -10q0 -10 7 -16
q4 -5 15 -5q12 0 23 5l6 -5q-9 -13 -29 -13zM50 44v61h54v-11h-35v-16h34v-10h-34v-24h-19zM168 40q-9 0 -15 4q-23 8 -23 26q0 15 11 25q9 10 28 10q26 0 36 -17q12 -9 4 -27q-8 -17 -31 -18zM299 43q-1 0 -11 6q0 1 -1.5 3l-3 4t-2.5 3l-6 7l-16 16v-38h-16v61h14
q5 -1 7 -7q3 -3 9.5 -9t7.5 -7l6 -9t7 -9v41h15v-61h-5q-1 -1 -5 -1zM363 44v50h-22v11h61v-11h-24v-50h-15zM555 43q-25 0 -35 9q2 3 2 4l1 1q0 3 2 4l22 -5h10q3 2 4 3t1 0q0 10 -16 11q-2 0 -4 2q-1 1 -6 1q-11 1 -11 14q-3 10 10 16q10 2 16 2q19 0 29 -5l-5 -12
q-3 2 -6 2q-2 0 -4 1q-1 1 -4 1q-1 0 -4 2h-10q-5 0 -5 -4q-1 -3 5 -8q5 0 18 -5q15 -4 15 -15q2 -13 -13 -18q-2 -1 -12 -1zM627 44v50h-22v11h62v-11h-22v-50h-18zM696 44v61h19v-61h-19zM839 44q21 37 29 61h20l15 -28q1 -4 4 -11l3 -6q1 -1 4 -7.5t5 -8.5h-16l-7 13h-35
l-6 -13h-16zM417 44l30 59h17q7 -14 8 -15t9 -14q0 -2 2 -6.5t3 -7.5l7 -16h-16q-1 2 -1 5q0 1 -1.5 3t-2.5 5h-33q-2 -1 -2 -8q-1 -1 -1 -2l-4 -3h-15zM169 55q5 0 7 1q14 2 14 17v1q0 10 -5 14q-6 6 -17 6q-3 -2 -5 -2q-4 -1 -14 -9q-8 -8 -1 -15q4 -13 21 -13zM442 68h24
q0 4 -2 5q-1 1 -2 3l-1 3q-3 2 -3 6q-1 1 -1 2q-1 2 -1 3zM865 68h24q-1 1 -1 5q-2 1 -3 3l-1 3q0 4 -3 6l-1 2q-1 2 -2 3z" />
    </font>
</defs>
</svg>
